<svg id="レイヤー_1" data-name="レイヤー 1" xmlns="http://www.w3.org/2000/svg" xmlns:xlink="http://www.w3.org/1999/xlink" viewBox="0 0 56.34 56.41"><defs><clipPath id="clip-path"><path d="M-.09,28.21A28.26,28.26,0,1,0,28.17,0,28.27,28.27,0,0,0-.09,28.21" fill="none"/></clipPath></defs><g clip-path="url(#clip-path)"><path d="M41.09,20.88A12.88,12.88,0,1,1,28.22,8,12.88,12.88,0,0,1,41.09,20.88" fill="#faee00"/><path d="M38.33,74.66a39.47,39.47,0,0,0,2.92-15.42c0-13.5-5.83-24.44-13-24.44s-13,10.94-13,24.44a39.25,39.25,0,0,0,3,15.5Z" fill="#faee00"/><path d="M28.27,45a13.39,13.39,0,0,1-9-3.44C16.8,46,15.24,52.26,15.24,59.24a39.25,39.25,0,0,0,3,15.5l20.18-.08a39.28,39.28,0,0,0,2.93-15.42c0-7-1.57-13.27-4.07-17.72a13.41,13.41,0,0,1-9,3.44" fill="#3094c4"/><path d="M28.27,20.86A3.31,3.31,0,1,1,25,17.55a3.31,3.31,0,0,1,3.31,3.31" fill="#fff"/><path d="M34.89,20.86a3.31,3.31,0,1,1-3.31-3.31,3.31,3.31,0,0,1,3.31,3.31" fill="#fff"/><path d="M27.79,21.6A1.83,1.83,0,1,1,26,19.77a1.83,1.83,0,0,1,1.82,1.83" fill="#3094c4"/><path d="M34.59,21.61a1.83,1.83,0,1,1-1.82-1.82,1.82,1.82,0,0,1,1.82,1.82" fill="#3094c4"/><path d="M22.19,17a.54.54,0,0,1-1.08,0,.54.54,0,1,1,1.08,0" fill="#3094c4"/><path d="M24.56,15.92a.55.55,0,0,1-.55.54.54.54,0,0,1,0-1.08.55.55,0,0,1,.55.54" fill="#3094c4"/><path d="M27,16.17a.55.55,0,0,1-.54.55.55.55,0,0,1-.55-.55.55.55,0,0,1,.55-.54.54.54,0,0,1,.54.54" fill="#3094c4"/><path d="M34.22,17a.54.54,0,0,0,1.08,0,.54.54,0,1,0-1.08,0" fill="#3094c4"/><path d="M31.85,15.92a.54.54,0,0,0,.54.54.54.54,0,1,0,0-1.08.54.54,0,0,0-.54.54" fill="#3094c4"/><path d="M29.37,16.17a.54.54,0,1,0,1.08,0,.54.54,0,1,0-1.08,0" fill="#3094c4"/><path d="M50.16,37.41l-.17.14L47,39.9,47,39.41,50.91,36a.84.84,0,1,0-1.27-1.11l-3.3,3-.22-.28,4-4.06a.86.86,0,1,0-1.29-1.14l-3.66,3.89a.61.61,0,0,1-.69.15l2.85-4.27A.82.82,0,0,0,47.22,31a.81.81,0,0,0-1.15.08l-2.88,4A5,5,0,0,1,41,36.81l-1.37-2.72,0,0a.94.94,0,1,0-1.6,1l0-.06.23.46a10.07,10.07,0,0,1,.95,4.52,3.91,3.91,0,0,0,6.85,2.63l5.06-4.13a.76.76,0,1,0-1.14-1" fill="#faee00"/><path d="M22.78,26.17A2.18,2.18,0,1,1,20.6,24a2.18,2.18,0,0,1,2.18,2.18" fill="#3094c4"/><path d="M22.78,26.17A2.18,2.18,0,1,1,20.6,24a2.18,2.18,0,0,1,2.18,2.18" fill="#fff"/><path d="M38.57,26a2.18,2.18,0,1,1-2.18-2.18A2.17,2.17,0,0,1,38.57,26" fill="#fff"/><path d="M7.09,37.41l.17.14,2.91,2.31.05-.48L6.35,36a.84.84,0,0,1,.08-1.17A.83.83,0,0,1,7.6,35l3.26,2.91.21-.27-3.91-4a.85.85,0,1,1,1.27-1.12L12,36.3a.61.61,0,0,0,.68.14l-2.8-4.2A.82.82,0,0,1,10,31.1a.81.81,0,0,1,1.14.08l2.83,4a4.94,4.94,0,0,0,2.13,1.68l1.36-2.68,0,0a1,1,0,0,1,1.29-.29A.93.93,0,0,1,19,35.18l0-.06-.22.45A9.74,9.74,0,0,0,17.86,40a3.85,3.85,0,0,1-6.74,2.59l-5-4.07a.76.76,0,0,1,.07-1.06.74.74,0,0,1,1,.07" fill="#faee00"/><path d="M17,14.62a10.46,10.46,0,0,0,2.6.32c4.73,0,8.57-3.1,8.57-6.93A12.86,12.86,0,0,0,17,14.62" fill="#3094c4"/><path d="M28.32,8c.73,3.23,4.22,5.69,8.43,5.69a10.61,10.61,0,0,0,2-.2A12.89,12.89,0,0,0,28.32,8" fill="#3094c4"/></g></svg>