<svg id="レイヤー_1" data-name="レイヤー 1" xmlns="http://www.w3.org/2000/svg" xmlns:xlink="http://www.w3.org/1999/xlink" viewBox="0 0 56.34 56.41"><defs><clipPath id="clip-path"><path d="M0,28.26A28.26,28.26,0,1,0,28.26,0,28.26,28.26,0,0,0,0,28.26" fill="none"/></clipPath></defs><g clip-path="url(#clip-path)"><path d="M41.57,23.29A12.88,12.88,0,1,1,28.69,10.41,12.88,12.88,0,0,1,41.57,23.29" fill="#faee00"/><path d="M38.8,77.07a39.52,39.52,0,0,0,2.92-15.43c0-13.49-5.83-24.43-13-24.43s-13,10.94-13,24.43a39.27,39.27,0,0,0,3,15.51Z" fill="#faee00"/><path d="M28.75,47.37a13.37,13.37,0,0,1-9-3.45c-2.5,4.45-4.07,10.74-4.07,17.72a39.27,39.27,0,0,0,3,15.51l20.18-.08a39.34,39.34,0,0,0,2.93-15.43c0-7-1.56-13.27-4.07-17.72a13.35,13.35,0,0,1-9,3.45" fill="#3094c4"/><path d="M28.74,23.27A3.31,3.31,0,1,1,25.43,20a3.31,3.31,0,0,1,3.31,3.31" fill="#fff"/><path d="M35.36,23.27A3.31,3.31,0,1,1,32.05,20a3.31,3.31,0,0,1,3.31,3.31" fill="#fff"/><path d="M28.26,24a1.83,1.83,0,1,1-1.82-1.82A1.82,1.82,0,0,1,28.26,24" fill="#3094c4"/><path d="M35.06,24a1.83,1.83,0,1,1-1.82-1.82A1.83,1.83,0,0,1,35.06,24" fill="#3094c4"/><path d="M22.66,19.41a.54.54,0,1,1-1.08,0,.54.54,0,0,1,1.08,0" fill="#3094c4"/><path d="M25,18.33a.55.55,0,0,1-.55.54.54.54,0,0,1-.54-.54.55.55,0,0,1,.54-.55.55.55,0,0,1,.55.55" fill="#3094c4"/><path d="M27.51,18.58A.54.54,0,1,1,27,18a.54.54,0,0,1,.54.54" fill="#3094c4"/><path d="M34.69,19.41a.54.54,0,1,0,1.08,0,.54.54,0,1,0-1.08,0" fill="#3094c4"/><path d="M32.32,18.33a.54.54,0,0,0,.54.54.55.55,0,0,0,.55-.54.55.55,0,0,0-.55-.55.55.55,0,0,0-.54.55" fill="#3094c4"/><path d="M29.84,18.58a.54.54,0,1,0,.54-.54.54.54,0,0,0-.54.54" fill="#3094c4"/><path d="M50.63,39.81l-.17.15-3,2.34-.06-.48,3.93-3.39a.84.84,0,0,0-.07-1.19.85.85,0,0,0-1.2.07l-3.3,3L46.59,40l4-4.07a.86.86,0,1,0-1.29-1.13l-3.66,3.88a.61.61,0,0,1-.69.15l2.85-4.27a.82.82,0,0,0-1.23-1.08l-2.88,4a4.85,4.85,0,0,1-2.16,1.7l-1.38-2.72,0,0a.95.95,0,0,0-1.6,1l0-.06.23.46a10,10,0,0,1,.95,4.52,3.86,3.86,0,0,0,1.32,3,3.92,3.92,0,0,0,5.53-.35L51.6,41a.76.76,0,0,0-1.14-1" fill="#faee00"/><path d="M7.56,39.81l.17.15,2.91,2.3.06-.47L6.83,38.45a.83.83,0,0,1,.07-1.17.83.83,0,0,1,1.17.07l3.26,2.92.21-.28L7.63,36A.85.85,0,1,1,8.9,34.88l3.6,3.82a.6.6,0,0,0,.68.15l-2.8-4.2a.81.81,0,0,1,1.21-1.07l2.83,4a4.85,4.85,0,0,0,2.13,1.67l1.36-2.67,0,.05a.93.93,0,0,1,1.28-.3,1,1,0,0,1,.29,1.29l0-.06-.22.45a9.87,9.87,0,0,0-.94,4.45A3.85,3.85,0,0,1,11.59,45L6.61,41a.76.76,0,0,1,.07-1.06A.74.74,0,0,1,7.73,40" fill="#faee00"/><polygon points="40.89 9.76 32.32 12.06 38.59 18.33 40.89 9.76" fill="#3094c4"/><polygon points="36.33 8.03 27.77 10.32 34.04 16.59 36.33 8.03" fill="#3094c4"/><path d="M30.92,30.08a2.18,2.18,0,1,1-4.35,0" fill="none" stroke="#de4c22" stroke-miterlimit="10"/></g></svg>