<svg id="レイヤー_1" data-name="レイヤー 1" xmlns="http://www.w3.org/2000/svg" viewBox="0 0 68.85 70.27"><path d="M41.92,14.38A13.39,13.39,0,1,0,55.31,1,13.39,13.39,0,0,0,41.92,14.38" fill="#faee00"/><path d="M44.8,70.27a40.87,40.87,0,0,1-3-16c0-14,6.07-25.4,13.55-25.4s13.54,11.37,13.54,25.4a40.88,40.88,0,0,1-3.07,16.12Z" fill="#faee00"/><path d="M55.25,39.4a13.89,13.89,0,0,0,9.32-3.58c2.6,4.63,4.22,11.17,4.22,18.42a40.88,40.88,0,0,1-3.07,16.12l-21-.09a40.87,40.87,0,0,1-3-16c0-7.25,1.63-13.79,4.23-18.42a13.89,13.89,0,0,0,9.32,3.58" fill="#de4c22"/><path d="M55.25,14.35a3.45,3.45,0,1,0,3.45-3.44,3.45,3.45,0,0,0-3.45,3.44" fill="#fff"/><path d="M48.37,14.35a3.45,3.45,0,1,0,3.44-3.44,3.44,3.44,0,0,0-3.44,3.44" fill="#fff"/><path d="M55.76,15.12a1.89,1.89,0,1,0,1.89-1.9,1.89,1.89,0,0,0-1.89,1.9" fill="#3094c4"/><path d="M48.69,15.13a1.89,1.89,0,1,0,1.89-1.89,1.9,1.9,0,0,0-1.89,1.89" fill="#3094c4"/><path d="M61.57,10.35a.57.57,0,0,0,.57.56.57.57,0,0,0,0-1.13.57.57,0,0,0-.57.57" fill="#3094c4"/><path d="M59.11,9.22a.57.57,0,0,0,.57.56.56.56,0,0,0,.56-.56.57.57,0,0,0-.56-.57.58.58,0,0,0-.57.57" fill="#3094c4"/><path d="M56.53,9.48a.58.58,0,0,0,.57.57.57.57,0,0,0,.56-.57.56.56,0,0,0-.56-.56.57.57,0,0,0-.57.56" fill="#3094c4"/><path d="M49.08,10.35a.57.57,0,0,1-.57.56.57.57,0,0,1,0-1.13.57.57,0,0,1,.57.57" fill="#3094c4"/><path d="M51.53,9.22a.56.56,0,0,1-.56.56.57.57,0,0,1-.57-.56A.58.58,0,0,1,51,8.65a.57.57,0,0,1,.56.57" fill="#3094c4"/><path d="M54.12,9.48a.58.58,0,0,1-.57.57A.57.57,0,0,1,53,9.48a.56.56,0,0,1,.56-.56.57.57,0,0,1,.57.56" fill="#3094c4"/><path d="M33.22,34.44l.15.12,2.5,2,.05-.41-3.33-2.88a.72.72,0,0,1,.06-1,.71.71,0,0,1,1,.07l2.81,2.51.18-.24-3.37-3.44a.72.72,0,0,1,.07-1,.73.73,0,0,1,1,.06l3.1,3.3a.52.52,0,0,0,.59.12L35.65,30a.71.71,0,0,1,.06-1,.7.7,0,0,1,1,.07l2.45,3.42A4.19,4.19,0,0,0,41,33.93l1.17-2.31,0,0a.8.8,0,0,1,1.36.86l0-.06-.19.39a8.45,8.45,0,0,0-.81,3.84,3.31,3.31,0,0,1-5.8,2.23l-4.3-3.51a.64.64,0,0,1,.06-.91.65.65,0,0,1,.91.06" fill="#faee00"/><path d="M40.06,48.14l.18,0,3.18-.34-.25-.33-4.39.3a.73.73,0,0,1-.67-.77.72.72,0,0,1,.77-.66l3.76-.18,0-.3-4.82-.09a.71.71,0,0,1-.67-.77.73.73,0,0,1,.78-.68l4.52.17a.53.53,0,0,0,.51-.33l-4.26-.88a.69.69,0,1,1,.09-1.38l4.14.72a4.27,4.27,0,0,0,2.32-.26l-.79-2.47v.05A.8.8,0,0,1,46,39.58v-.06l.13.41a8.41,8.41,0,0,0,2.12,3.29,3.32,3.32,0,0,1-2.57,5.67l-5.52.52a.65.65,0,0,1-.59-.69.64.64,0,0,1,.68-.6" fill="#faee00"/><polygon points="0 29.12 21.52 22.06 21.52 0 0 7.05 0 29.12" fill="#3094c4"/><path d="M20.62,31.13A8.09,8.09,0,0,0,5.83,37.68" fill="#3094c4"/><path d="M57.49,22.22A2.18,2.18,0,1,1,55.31,20,2.18,2.18,0,0,1,57.49,22.22Z" fill="none" stroke="#de4c22" stroke-miterlimit="10"/></svg>