<svg id="レイヤー_1" data-name="レイヤー 1" xmlns="http://www.w3.org/2000/svg" xmlns:xlink="http://www.w3.org/1999/xlink" viewBox="0 0 56.34 56.41"><defs><clipPath id="clip-path"><path d="M0-43.57A28.26,28.26,0,0,0,28.26-15.31,28.26,28.26,0,0,0,56.52-43.57,28.25,28.25,0,0,0,28.26-71.82,28.25,28.25,0,0,0,0-43.57" fill="none"/></clipPath><clipPath id="clip-path-2"><path d="M0,28.16A28.26,28.26,0,1,0,28.26-.1,28.25,28.25,0,0,0,0,28.16" fill="none"/></clipPath></defs><g clip-path="url(#clip-path)"><path d="M38.8,5.24a39.43,39.43,0,0,0,2.92-15.42c0-13.5-5.83-24.44-13-24.44s-13,10.94-13,24.44a39.22,39.22,0,0,0,3,15.5Z" fill="#faee00"/><path d="M28.75-24.46a13.41,13.41,0,0,1-9-3.44c-2.5,4.45-4.07,10.74-4.07,17.72a39.22,39.22,0,0,0,3,15.5l20.18-.08a39.25,39.25,0,0,0,2.93-15.42c0-7-1.56-13.27-4.07-17.72a13.39,13.39,0,0,1-9,3.44" fill="#3094c4"/></g><g clip-path="url(#clip-path-2)"><path d="M16.07,16.94A13.38,13.38,0,1,0,29.45,3.56,13.38,13.38,0,0,0,16.07,16.94" fill="#faee00"/><path d="M18.94,72.84a41,41,0,0,1-3-16c0-14,6.06-25.4,13.54-25.4S43,42.78,43,56.8a40.84,40.84,0,0,1-3.08,16.12Z" fill="#faee00"/><path d="M29.39,42a13.89,13.89,0,0,0,9.32-3.58c2.6,4.62,4.23,11.16,4.23,18.41a40.84,40.84,0,0,1-3.08,16.12l-21-.08a41,41,0,0,1-3-16c0-7.25,1.62-13.79,4.22-18.41A13.93,13.93,0,0,0,29.39,42" fill="#de4c22"/><path d="M29.4,16.92a3.44,3.44,0,1,0,3.44-3.44,3.44,3.44,0,0,0-3.44,3.44" fill="#fff"/><path d="M22.52,16.92A3.44,3.44,0,1,0,26,13.48a3.44,3.44,0,0,0-3.44,3.44" fill="#fff"/><path d="M29.9,17.68a1.9,1.9,0,1,0,1.89-1.89,1.89,1.89,0,0,0-1.89,1.89" fill="#3094c4"/><path d="M22.83,17.7a1.9,1.9,0,1,0,1.89-1.9,1.89,1.89,0,0,0-1.89,1.9" fill="#3094c4"/><path d="M35.72,12.91a.56.56,0,1,0,.56-.56.56.56,0,0,0-.56.56" fill="#3094c4"/><path d="M33.26,11.78a.57.57,0,0,0,.56.57.58.58,0,0,0,.57-.57.57.57,0,0,0-.57-.56.56.56,0,0,0-.56.56" fill="#3094c4"/><path d="M30.68,12.05a.56.56,0,1,0,.56-.57.56.56,0,0,0-.56.57" fill="#3094c4"/><path d="M23.22,12.91a.57.57,0,1,1-.57-.56.56.56,0,0,1,.57.56" fill="#3094c4"/><path d="M25.68,11.78a.58.58,0,0,1-.57.57.57.57,0,0,1-.56-.57.56.56,0,0,1,.56-.56.57.57,0,0,1,.57.56" fill="#3094c4"/><path d="M28.26,12.05a.57.57,0,1,1-.57-.57.56.56,0,0,1,.57.57" fill="#3094c4"/><path d="M7.37,37l.14.12,2.51,2,0-.41L6.73,35.82a.72.72,0,0,1,.06-1,.71.71,0,0,1,1,.07l2.81,2.51.18-.24L7.42,33.71a.74.74,0,0,1,.07-1,.72.72,0,0,1,1,.07L11.62,36a.54.54,0,0,0,.59.13L9.79,32.55a.7.7,0,0,1,1.05-.92l2.44,3.42a4.1,4.1,0,0,0,1.83,1.44l1.17-2.31,0,0a.8.8,0,0,1,1.36.85l0,0-.19.39a8.43,8.43,0,0,0-.8,3.83,3.32,3.32,0,0,1-5.81,2.23L6.54,38a.64.64,0,0,1,1-.85" fill="#faee00"/><path d="M14.2,50.7l.19,0,3.18-.34L17.31,50l-4.39.3a.72.72,0,0,1,.1-1.43l3.76-.18,0-.29-4.81-.09a.73.73,0,1,1,.1-1.46l4.52.17a.53.53,0,0,0,.51-.32l-4.26-.88a.69.69,0,0,1-.64-.74.68.68,0,0,1,.74-.65l4.14.72a4.06,4.06,0,0,0,2.31-.26l-.79-2.46,0,.05a.8.8,0,1,1,1.56-.35v-.06l.13.41a8.43,8.43,0,0,0,2.13,3.3,3.32,3.32,0,0,1-2.57,5.66L14.3,52a.64.64,0,0,1-.6-.69.65.65,0,0,1,.69-.6" fill="#faee00"/><path d="M31.57,23.7a2.18,2.18,0,1,1-4.36,0" fill="none" stroke="#de4c22" stroke-miterlimit="10"/></g></svg>