<svg id="レイヤー_1" data-name="レイヤー 1" xmlns="http://www.w3.org/2000/svg" viewBox="0 0 59.93 105.31"><polyline points="59.93 94.47 59.93 10.84 0 10.84 0 94.47" fill="#de4c22"/><path d="M32.09,50.16a6.71,6.71,0,1,1-6.71-6.71,6.7,6.7,0,0,1,6.71,6.71" fill="#fff"/><path d="M45.5,50.16a6.71,6.71,0,1,1-6.7-6.71,6.7,6.7,0,0,1,6.7,6.71" fill="#fff"/><path d="M26.06,50.16a3.69,3.69,0,1,1-3.69-3.69,3.69,3.69,0,0,1,3.69,3.69" fill="#3094c4"/><path d="M39.47,50.16a3.69,3.69,0,1,1-3.69-3.69,3.69,3.69,0,0,1,3.69,3.69" fill="#3094c4"/><path d="M19.78,42.35a1.1,1.1,0,1,1-1.1-1.1,1.1,1.1,0,0,1,1.1,1.1" fill="#fff"/><path d="M24.57,40.15a1.1,1.1,0,1,1-1.1-1.1,1.1,1.1,0,0,1,1.1,1.1" fill="#fff"/><path d="M29.6,40.67a1.1,1.1,0,1,1-1.1-1.1,1.1,1.1,0,0,1,1.1,1.1" fill="#fff"/><path d="M44.13,42.35a1.1,1.1,0,1,0,1.1-1.1,1.1,1.1,0,0,0-1.1,1.1" fill="#fff"/><path d="M39.34,40.15a1.1,1.1,0,1,0,1.1-1.1,1.1,1.1,0,0,0-1.1,1.1" fill="#fff"/><path d="M34.31,40.67a1.1,1.1,0,1,0,1.1-1.1,1.1,1.1,0,0,0-1.1,1.1" fill="#fff"/><path d="M59.93,10.84c0,5.55-13.42,10.05-30,10.05s-30-4.5-30-10,13.42-10,30-10,30,4.5,30,10.05" fill="#faee00"/><path d="M59.93,94.47c0,5.55-13.42,10-30,10S0,100,0,94.47s13.42-10,30-10,30,4.5,30,10" fill="#faee00"/></svg>