<svg id="レイヤー_1" data-name="レイヤー 1" xmlns="http://www.w3.org/2000/svg" viewBox="0 0 89.63 73.68"><path d="M53,26.49A26.49,26.49,0,1,1,26.49,0,26.49,26.49,0,0,1,53,26.49" fill="#faee00"/><path d="M89.11,47.19A26.49,26.49,0,1,1,62.62,20.7,26.49,26.49,0,0,1,89.11,47.19" fill="#de4c22"/><path d="M62.77,49.66a7.55,7.55,0,1,1-7.54-7.54,7.55,7.55,0,0,1,7.54,7.54" fill="#fff"/><path d="M77.86,49.66a7.55,7.55,0,1,1-7.54-7.54,7.55,7.55,0,0,1,7.54,7.54" fill="#fff"/><path d="M56,49.66a4.15,4.15,0,1,1-4.15-4.15A4.14,4.14,0,0,1,56,49.66" fill="#3094c4"/><path d="M71.08,49.66a4.16,4.16,0,1,1-4.16-4.15,4.15,4.15,0,0,1,4.16,4.15" fill="#3094c4"/><path d="M48.92,40.88a1.24,1.24,0,1,1-1.24-1.24,1.25,1.25,0,0,1,1.24,1.24" fill="#fff"/><path d="M54.31,38.4a1.24,1.24,0,1,1-1.24-1.23,1.24,1.24,0,0,1,1.24,1.23" fill="#fff"/><path d="M60,39a1.24,1.24,0,1,1-1.24-1.23A1.23,1.23,0,0,1,60,39" fill="#fff"/><path d="M76.32,40.88a1.24,1.24,0,1,0,1.24-1.24,1.25,1.25,0,0,0-1.24,1.24" fill="#fff"/><path d="M70.93,38.4a1.24,1.24,0,1,0,1.24-1.23,1.24,1.24,0,0,0-1.24,1.23" fill="#fff"/><path d="M65.27,39a1.24,1.24,0,1,0,1.24-1.23A1.24,1.24,0,0,0,65.27,39" fill="#fff"/><path d="M25.29,24.89a7.55,7.55,0,1,1-7.54-7.55,7.54,7.54,0,0,1,7.54,7.55" fill="#fff"/><path d="M40.39,24.89a7.55,7.55,0,1,1-7.55-7.55,7.55,7.55,0,0,1,7.55,7.55" fill="#fff"/><path d="M25.26,24.89a4.16,4.16,0,1,1-4.15-4.16,4.15,4.15,0,0,1,4.15,4.16" fill="#3094c4"/><path d="M40.35,24.89a4.15,4.15,0,1,1-4.15-4.16,4.15,4.15,0,0,1,4.15,4.16" fill="#3094c4"/><path d="M11.44,16.1a1.24,1.24,0,1,1-1.24-1.23,1.23,1.23,0,0,1,1.24,1.23" fill="#fff"/><path d="M16.83,13.63a1.24,1.24,0,1,1-1.24-1.24,1.24,1.24,0,0,1,1.24,1.24" fill="#fff"/><path d="M22.49,14.21A1.24,1.24,0,1,1,21.26,13a1.24,1.24,0,0,1,1.23,1.24" fill="#fff"/><path d="M38.85,16.1a1.24,1.24,0,1,0,1.23-1.23,1.23,1.23,0,0,0-1.23,1.23" fill="#fff"/><path d="M33.46,13.63a1.24,1.24,0,1,0,1.24-1.24,1.24,1.24,0,0,0-1.24,1.24" fill="#fff"/><path d="M27.79,14.21a1.24,1.24,0,1,0,2.48,0,1.24,1.24,0,1,0-2.48,0" fill="#fff"/></svg>