<svg id="レイヤー_1" data-name="レイヤー 1" xmlns="http://www.w3.org/2000/svg" viewBox="0 0 340.28 36"><path d="M141.24,1.05A.52.52,0,0,0,141,1a.1.1,0,0,0-.07.09.17.17,0,0,1-.07,0c-.05,0-.08.09-.09.12l-.06.09-.1.12s0,0,0,.06a.14.14,0,0,1,0,.11s-.15.23-.17.28-.14.35-.16.38l-.06.27c0,.07-.31,1.2-.31,1.29a4.18,4.18,0,0,0-.05.43c0,.29,0,.41,0,.5s-.12,2.08-.11,2.2,0,.2,0,.28a2.92,2.92,0,0,1,0,.32c0,.12,0,2.17,0,2.25s-.13.17,0,.26,0,0,0,.07,0,.11,0,.13a.05.05,0,0,1,0,.08s0,.07,0,.09,0,.08,0,.12,0,.08,0,.1a.44.44,0,0,1,0,.28c0,.07-.07.23,0,.28s0,.07,0,.09-.11.06,0,.21a.48.48,0,0,1,0,.3s0,0,0,.06,0,.11,0,.15,0,0,0,.06-.13.08,0,.2,0,.13,0,.15-.14.13,0,.13a.28.28,0,0,1,0,.14c0,.06-.07.08,0,.1a.07.07,0,0,1,0,.1c0,.06-.06.11,0,.14s0,.07,0,.07-.07.07,0,.11a.7.7,0,0,1,0,.16c0,.09-.09,1.38-.1,1.47s-.1,1.35-.09,1.48,0,.14,0,.14a.08.08,0,0,1,0,.1v.11l-.06.92s.06.08,0,.13-.08.11,0,.12v.35s-.1.07,0,.1v.05s-.12.07,0,.12,0,.1,0,.12,0,2,0,2a18.94,18.94,0,0,0,.35,2.76s0,.08,0,.09l0,.16c0,.06.2.89.3,1.18v.11s0,.07.06.19a.82.82,0,0,1,.05.25.71.71,0,0,0,.07.34.3.3,0,0,1,.1.2c0,.09,0,.11.06.13s0,.22,0,.33a.56.56,0,0,0,.09.35c.09.09,0,.23.13.37a1.08,1.08,0,0,1,.17.34,6.16,6.16,0,0,0,.32.63.25.25,0,0,1,.06.13.27.27,0,0,0,0,.1l.2.26s0,.1.08.15,0,.12.08.13,0,.06,0,.07l.06,0,.08.12s0,.13.08.13.08.19.1.22l.09.11s0,.11,0,.11,0,.07,0,.07a3.2,3.2,0,0,0,.43.63c.13.11.05.07.05.07s0,.11.1.13a.35.35,0,0,1,0,.06l.14.16s.06,0,.06.09.3.37.38.49a12.26,12.26,0,0,0,1.29,1.38s.06,0,.06.09.11.09.11.09.06-.07.08,0A.16.16,0,0,0,145,33l.06,0a2.21,2.21,0,0,0,.26.19.14.14,0,0,1,.11.08s0,0,.09.07a.24.24,0,0,1,.09.09.42.42,0,0,0,.13.08,1.78,1.78,0,0,1,.27.17s.06,0,.06,0,0,.07,0,.07l.21.08a1.06,1.06,0,0,1,.27.18s.12,0,.15.06a.31.31,0,0,1,.09.07,1.31,1.31,0,0,0,.29.18,2,2,0,0,0,.3.12,1.07,1.07,0,0,1,.26.12.18.18,0,0,0,.14.07l.07.06a.47.47,0,0,0,.14,0,1,1,0,0,1,.27.1c.07.06.1.11.18.1s.13,0,.15,0,.17,0,.18,0,0,0,.07.06a.11.11,0,0,0,.08,0,.87.87,0,0,0,.22.07c.12,0,.17,0,.18.06s.08,0,.13,0,.44.14.59.16l.66.16a2.62,2.62,0,0,0,.31,0s.13.07.2.09.07-.05.1,0l.1,0s.83.06,1.09.08a1.41,1.41,0,0,1,.45,0,.17.17,0,0,0,.11,0l.35,0s0,.1.16,0h.34a.17.17,0,0,0,.15,0h.12l.79,0c.11,0,1.18-.1,1.34-.12a7.16,7.16,0,0,0,.75-.1,19,19,0,0,0,2.68-.88s.07-.05.11,0,.18-.08.43-.19a.2.2,0,0,1,.13,0c.07,0,.15-.11.16-.2s.12,0,.16,0a3,3,0,0,0,.24-.21l.19-.1a4.93,4.93,0,0,0,.52-.43s.18-.07.18-.15l1.62-1.38s0-.11.1-.1.29-.28.33-.28.39-.23.42-.41c0,0,.24-.29.31-.35a28.18,28.18,0,0,0,2.05-2.71,1.54,1.54,0,0,0,.18-.32c0-.11.36-.48.37-.53a.42.42,0,0,1,.09-.14s.72-1.62.85-2,.68-1.89.72-2.15S169,23,169,23s.29-.75.33-.89.34-1.53.34-1.53a.51.51,0,0,0,.07-.1c0-.06,0-.26,0-.32a1.28,1.28,0,0,0,.07-.16,1,1,0,0,1,0-.18c0-.06.27-1.49.3-1.56s.05-.28.08-.41.28-2.16.31-2.24a.43.43,0,0,0,.05-.18c0-.08.1-1.8.14-2.08l.18-1.3a.77.77,0,0,1,.07-.19s0,0,0-.07,0,0,0,0,0-.05,0-.06a1,1,0,0,1,0-.24l.09-.3s0-.14,0-.25l.2-.85a3.77,3.77,0,0,1,.1-.4.15.15,0,0,0,.05-.1c0-.06,0-.09,0-.13a.31.31,0,0,0,.06-.13s0-.07,0-.14a3.29,3.29,0,0,0,.11-.4,1.35,1.35,0,0,1,0-.33.69.69,0,0,1,.13-.34c.07-.06,0-.1.05-.18s0-.43.07-.48a.66.66,0,0,0,.1-.28,3.33,3.33,0,0,1,0-.55c0-.08.09-.13.09-.17a.74.74,0,0,1,0-.26,7.57,7.57,0,0,0,.13-1,7.9,7.9,0,0,0,0-1.07c0-.23-.06-.38-.06-.38a.49.49,0,0,1,0-.12c0-.11-.06-.26-.08-.3a4.81,4.81,0,0,0-.22-.63c0-.08-.22-.41-.25-.48s-.17-.18-.18-.22,0-.08,0-.1l-.06,0-.2-.14a.32.32,0,0,0-.2-.06s-.21-.07-.36.21a1.91,1.91,0,0,0,0,.71,3.19,3.19,0,0,1,.09.56.06.06,0,0,1,0,0,.1.1,0,0,0,0,.16s0,0,0,.08a.1.1,0,0,0,0,.1s0,.08-.08.11-.08,0-.17,0-.22-.21-.29-.31,0-.13,0-.21a.4.4,0,0,0-.11-.18.27.27,0,0,1-.08-.1c0-.06-.24-.49-.3-.6a.88.88,0,0,1-.1-.21c0-.05,0-.06-.05-.08s-.28-.43-.33-.48a1,1,0,0,1-.15-.23.46.46,0,0,0-.09-.12l-.51-.49s0-.05,0-.06L168,.28a.68.68,0,0,0-.27-.05.46.46,0,0,0-.34.13s-.05.06,0,.27a.17.17,0,0,0,0,.09c0,.05.08.22.1.26a1,1,0,0,1,.1.17,1.19,1.19,0,0,1,0,.24c0,.08,0,.08,0,.09a.93.93,0,0,1,.15.2c.06.12.13.39.16.46s.15.26.18.35a3.39,3.39,0,0,1,.15.45c0,.1,0,.35,0,.41s0,.13-.14.16a.28.28,0,0,1-.24,0s-.38-.34-.42-.4-.4-.4-.44-.44-.21-.26-.28-.33-.38-.35-.44-.42a3.54,3.54,0,0,1-.28-.33s0,0-.13-.11-.09-.11-.13-.16a1.65,1.65,0,0,0-.33-.29c-.12-.07-.27-.19-.3-.21s0-.07,0-.08-.06,0-.07,0L165,.6l-.09,0h-.1l-.15-.13-.09,0s-.1-.08-.17-.09a.52.52,0,0,0-.32,0c-.14.06-.15.08-.15.08l-.06,0s0,.07,0,.09-.07.06,0,.1,0,.08,0,.09-.08.08-.07.13a.67.67,0,0,0,.12.17c0,.06,0,.06,0,.1s.35.49.38.55a3.13,3.13,0,0,0,.22.31c.07.07.2.24.22.25s0,.06.06.09.07,0,.09.07,0,.09,0,.12,0,0,.08,0a.38.38,0,0,1,.12.1c0,.05.24.31.28.38l.13.23s.1,0,.1.11a.48.48,0,0,0,.08.1.5.5,0,0,1,.08.12s.13.18.18.22a.48.48,0,0,1,.08.16c0,.07.08.21.1.26a.8.8,0,0,1,0,.31.19.19,0,0,1-.15.15c-.07,0-.18-.07-.21-.07h-.09s0-.09-.06-.1-.1,0-.14,0a.74.74,0,0,1-.13-.12s-.23-.18-.25-.21A.53.53,0,0,0,165,4s0-.08-.06-.09-.08,0-.11-.05a.43.43,0,0,1-.07-.1,1.66,1.66,0,0,0-.18-.19l-.16-.16-.31-.27s0-.05,0-.07l-.08,0L163.9,3a.14.14,0,0,0-.05-.08s0,0-.09,0-.09-.06-.11-.08l-.14-.12s0,0,0-.08-.09,0-.09,0l-.32-.17L163,2.29l-.08,0-.2-.14s-.11,0-.14,0a1.13,1.13,0,0,1-.18,0,.26.26,0,0,0-.23,0,.41.41,0,0,0-.15.15.73.73,0,0,1-.05.12s-.06.09,0,.13a.15.15,0,0,1,0,.11s0,.23,0,.29S162,3,162,3a.19.19,0,0,0,0,.1l.26.36a3.15,3.15,0,0,0,.24.3c.05.07.09.1.09.12s0,.08,0,.09a.11.11,0,0,1,.06.07s0,0,.07,0,.06.13.09.15a.34.34,0,0,1,.07.11s.14.13.17.17,0,.1,0,.13a.18.18,0,0,0,.09.08.23.23,0,0,1,.09.06s0,.09,0,.11a1.5,1.5,0,0,0,.19.23,4.29,4.29,0,0,1,.28.35c.05.06,0,.08,0,.1l.07,0a1.19,1.19,0,0,1,.16.29.65.65,0,0,1,0,.3s-.12.14-.14.16a.14.14,0,0,1-.11.05h-.18l-.07,0a2.23,2.23,0,0,1-.23,0L163,6.14a1.93,1.93,0,0,0-.2,0c-.06,0-.34-.18-.39-.19a1.52,1.52,0,0,0-.41-.13.69.69,0,0,0-.29,0,.45.45,0,0,0-.17.09l-.09.12-.06,0s-.06.07-.06.12,0,.11,0,.15a.49.49,0,0,0,0,.21.37.37,0,0,1,.05.17.4.4,0,0,0,0,.15l.08.09s.18.27.22.32a.23.23,0,0,1,.05.1,2,2,0,0,0,.21.21c.06.05.33.32.39.39l.14.17.47.42.56.49a5.2,5.2,0,0,1,.38.44c.07.08.26.4.33.51s.07.16.1.2l.07.08s.21.42.24.5.08.21.08.24.06.1.07.14l.22.51a.63.63,0,0,1,0,.14.46.46,0,0,0,0,.1,4.06,4.06,0,0,1,.16.4c0,.12,0,.21,0,.24a.85.85,0,0,1,.06.19c0,.06.15.53.16.65s.07.57.08.62,0,.17,0,.21a1.72,1.72,0,0,1,0,.18c0,.07,0,.5,0,.57s0,.65,0,.69a.14.14,0,0,1,0,.07s-.05,0,0,.09a.41.41,0,0,1,0,.1s0,.51,0,.57,0,.4,0,.49,0,.32,0,.37,0,.05,0,.14,0,.22,0,.26a2.25,2.25,0,0,0-.05.22c0,.05,0,.17,0,.21s-.07.09-.07.11,0,.08,0,.09a.08.08,0,0,0,0,.12.05.05,0,0,1,0,.08s-.07.09,0,.13,0,.07,0,.08-.06,0,0,.09a.11.11,0,0,1,0,.14s0,0-.06,0,0,.05,0,.09,0,.06,0,.09-.09,0-.07.07,0,0,0,.05a.15.15,0,0,1,0,.08s0,0,0,.05v.09s0,0,0,.07,0,0,0,0,0,0,0,0,0,.12,0,.16,0,0,0,.05,0,0,0,0,0,.07,0,.08a.12.12,0,0,0,0,.11.13.13,0,0,0,0,.1s0,.07,0,.08l-.07.05s0,.13,0,.15l-.06.07s0,0,0,0a.11.11,0,0,1,0,.08l0,.05s-.06,0,0,.06,0,0,0,.05,0,.17-.05.21-.13.42-.17.53-.22.56-.26.63l-.17.41a.74.74,0,0,1-.1.16l-.24.47c0,.05-.17.37-.19.39a.75.75,0,0,0-.05.16.42.42,0,0,1-.06.14s-.16.22-.18.26l-.06.13s0,.06,0,.09a.17.17,0,0,0,0,.06.59.59,0,0,0-.06.14s-.13.19-.15.22a.38.38,0,0,0,0,.1l-.06.07,0,.08a1.1,1.1,0,0,0-.09.14l-.05.11c0,.05-.32.5-.36.57a1.46,1.46,0,0,1-.19.26l-.21.29a1.73,1.73,0,0,0-.19.28.22.22,0,0,1-.06.12s-.38.33-.42.38l-.12.13-.1.06s-1.06.88-1.13.92l-.6.47-.15.12s-.23.14-.3.18l-.56.28-.77.26a1.26,1.26,0,0,1-.28.07h-.13a1,1,0,0,0-.2.07l-.77.16-.64.08c-.08,0-2,0-2.13,0l-.43,0s-.08,0-.11,0l-.73,0-.61-.09-.32-.06a2.7,2.7,0,0,0-.35-.07,2.49,2.49,0,0,1-.34-.05s-.05,0-.09-.05l-.19,0c-.06,0-.36-.15-.43-.18l-.33-.18-.18-.07a2.37,2.37,0,0,0-.36-.17l-.15-.08a1.75,1.75,0,0,0-.24-.11,1.06,1.06,0,0,1-.19-.11s0-.06,0-.07l-.1,0a.49.49,0,0,0-.1-.09.23.23,0,0,1-.12-.08l-.66-.5c-.1-.09-.62-.55-.69-.65s-.42-.54-.46-.61a.4.4,0,0,1-.06-.13.22.22,0,0,0-.06-.1S146,26,146,26s0-.12,0-.13l-.09-.1a.75.75,0,0,1-.06-.13s0-.05,0-.11,0-.11-.06-.13-.05-.06-.05-.09,0-.05,0-.07-.08-.09-.08-.13a1,1,0,0,0-.05-.17,1.26,1.26,0,0,0-.11-.17.21.21,0,0,1-.07-.12.41.41,0,0,0,0-.16.78.78,0,0,1-.05-.14c0-.05-.23-.55-.27-.69s-.3-1-.32-1.11-.13-.68-.13-.72a1.24,1.24,0,0,1,0-.18,2.35,2.35,0,0,0,0-.26.53.53,0,0,1,0-.16,1.62,1.62,0,0,0,0-.19c0-.05-.05-.11-.05-.14s0-.25,0-.25,0,0,0,0l0,0a.71.71,0,0,1,0-.12s0-.36,0-.42,0-.67,0-.7,0,0,0,0,0-.1,0-.14a.65.65,0,0,1,0-.19,2.61,2.61,0,0,0,0-.28s0-.81,0-.91,0-.5,0-.51a.05.05,0,0,1,0-.05s0,0,0,0,0-.36,0-.44.1-.53.11-.62a.9.9,0,0,1,.06-.28s0,0,0-.15a.14.14,0,0,0,.05-.11.14.14,0,0,1,0-.1.22.22,0,0,0,0-.07c0-.06,0-.21,0-.24s.26-.92.32-1.07.21-.5.25-.62,0-.16.06-.2l.07-.06s0-.07,0-.09a.55.55,0,0,1,.09-.14s0-.05,0-.07a1.31,1.31,0,0,1,.05-.15s0,0,0-.07.17-.48.19-.52a5.71,5.71,0,0,1,.28-.53,2.92,2.92,0,0,0,.18-.31c0-.05.17-.29.21-.35a2.49,2.49,0,0,1,.3-.38c.08-.08.2-.23.25-.27l.19-.16a1.35,1.35,0,0,1,.24-.18,1.47,1.47,0,0,0,.22-.22.89.89,0,0,1,.17-.15s.13,0,.11-.08a0,0,0,0,1,0,0s.12-.11.16-.11.08,0,.1,0-.08-.07,0-.09a.8.8,0,0,0,.22-.13s0-.09,0-.09l.15,0c.05,0,.09,0,.1,0s0-.11,0-.1.11,0,.15-.11.06,0,.09-.06,0-.1.1-.13a.39.39,0,0,1,.14,0c.05,0,.09,0,.11-.1h.06s0,0,0-.06a.16.16,0,0,1,.1-.11c.06,0,.5-.37.58-.42s.32-.25.35-.26.05,0,.08,0,.07-.08.11-.08l.07,0s0,0,0-.06.06,0,.07,0,0-.08,0-.1a.76.76,0,0,1,.14-.1s.06,0,.06,0,0-.08,0-.1a1,1,0,0,1,.14-.15.07.07,0,0,0,.05-.06s0-.07,0-.1a.54.54,0,0,0,.08-.24.6.6,0,0,0-.05-.31.41.41,0,0,0-.24-.2.72.72,0,0,1-.21,0,.12.12,0,0,0-.07,0l-.1,0-.24.06a1.13,1.13,0,0,0-.2,0,.11.11,0,0,0-.09,0,.3.3,0,0,1-.09.08,1.25,1.25,0,0,0-.15,0l-.09,0a.1.1,0,0,1-.08,0l-.24,0s-.1,0-.15,0l-.16,0s-.12.05-.17.05a.4.4,0,0,1-.24,0c-.13-.05-.2-.08-.21-.11a1,1,0,0,1,0-.25s0,0,0-.06a.06.06,0,0,1,0-.07,1.71,1.71,0,0,0,.11-.17,2,2,0,0,1,.13-.19s0-.1.11-.16,0-.11,0-.11a.27.27,0,0,1,0-.07s.23-.36.31-.45.22-.31.26-.35,0-.07,0-.11l.1-.11s0-.07,0-.1,0,0,.1-.09a1,1,0,0,0,.19-.27l.16-.28a.39.39,0,0,0,.06-.17c0-.07,0-.07,0-.1s0-.08,0-.11a.32.32,0,0,0-.06-.16.58.58,0,0,0-.21-.13,1,1,0,0,0-.34,0,.27.27,0,0,0-.18.08l-.23.16-.33.3a.44.44,0,0,0-.1.08s0,0,0,.06-.29.24-.36.3l-.28.22L148,4s-.11.15-.13.16a.16.16,0,0,1-.09,0s0,0,0,0-.09.12-.11.13l-.4.29a.28.28,0,0,1-.11,0h-.2s-.07-.13-.08,0,0,0,0,0a.19.19,0,0,1-.1,0,.43.43,0,0,1-.08-.14.37.37,0,0,1,0-.23c0-.08,0-.12,0-.17l.16-.25c0-.08.11-.2.12-.22s0-.07,0-.09.05,0,.1-.11.15-.23.18-.28.05-.15.1-.18,0,0,.06-.08a2.33,2.33,0,0,1,.17-.28s0-.11.09-.18a2,2,0,0,1,.13-.25,3,3,0,0,1,.21-.3.28.28,0,0,0,.07-.11s0-.1,0-.11a.13.13,0,0,0,0-.09s0-.15,0-.17.06-.06.06-.1a.41.41,0,0,0,0-.19.74.74,0,0,0-.14-.22.48.48,0,0,0-.28-.18l-.23-.05a.17.17,0,0,0-.12,0,.43.43,0,0,1-.12.06.26.26,0,0,0-.12.05l-.29.3-.12.17c0,.07-.43.51-.45.53a.31.31,0,0,0-.09.12c0,.08,0,.06,0,.09s-.08,0-.12.09a1.53,1.53,0,0,1-.15.23l-.28.28s0,.08,0,.11-.19.19-.22.24,0,.09-.05.11-.3.37-.35.42a.82.82,0,0,1-.24.22.2.2,0,0,1-.23-.06.47.47,0,0,1-.11-.27,2.1,2.1,0,0,1,.06-.38c0-.11.18-.58.21-.65s.28-.6.32-.68.08-.15.1-.21l.06-.17a.65.65,0,0,1,.1-.19s0,0,.06-.09a.87.87,0,0,1,.1-.2l.09-.15a.21.21,0,0,0,0-.16.11.11,0,0,1,0-.11s0-.09-.08-.17a.36.36,0,0,0-.34-.13.78.78,0,0,0-.28.05s-.07,0-.09.08a.69.69,0,0,1-.15.14s-.35.32-.39.37L144,.91A.56.56,0,0,1,144,1l-.37.42c0,.05,0,.11-.06.14s-.23.33-.26.38a2.44,2.44,0,0,0-.16.23l0,.07s0,.06-.05.09l-.24.39s0,.06-.05.07a.19.19,0,0,0-.05.09s-.2.32-.23.37a.92.92,0,0,1-.25.19.76.76,0,0,1-.3-.05.88.88,0,0,1-.21-.22c0-.05-.09-.14-.12-.17a.15.15,0,0,1,0-.1.26.26,0,0,0,0-.15.75.75,0,0,1,0-.21s0-.35,0-.46a1.89,1.89,0,0,0,0-.32s0,0,0-.07a.38.38,0,0,0,0-.15.07.07,0,0,1,0-.06.06.06,0,0,0,0-.07.52.52,0,0,0-.06-.13.46.46,0,0,0-.16-.15l-.17-.07" fill="#00a040"/><path d="M149.43,12.58l-.51.25-.13,0-.37.25a2.13,2.13,0,0,0-.34.25.21.21,0,0,0-.1.12s0,0-.08.07a.31.31,0,0,0-.1.08,3,3,0,0,0-.32.39l-.09.19a.22.22,0,0,1,0,.11.42.42,0,0,0-.09.19.87.87,0,0,0,0,.23.74.74,0,0,0,.13.31.21.21,0,0,0,.1.06s0,0,.07.06a.23.23,0,0,0,.15.06l.17,0,.17-.06.23-.11a.67.67,0,0,0,.14-.11c.06,0,.16-.2.22-.26l.26-.28c.07-.05.21-.18.26-.21a1.53,1.53,0,0,1,.26-.16l.16-.08a1.3,1.3,0,0,1,.37-.11s.06,0,.15,0,.27,0,.37,0,.25,0,.36,0a.83.83,0,0,1,.26.06.76.76,0,0,1,.13.07l.2.05.26.13c.09.06.27.15.33.18a.37.37,0,0,0,.16.09,1.3,1.3,0,0,0,.34,0,.45.45,0,0,0,.33-.21s.05,0,0-.31,0-.25,0-.34-.07-.11-.11-.16a1.64,1.64,0,0,1-.24-.21.28.28,0,0,0-.09-.1s-.12-.11-.15-.11h-.06s0-.05-.07-.07l-.14-.08s0,0-.08,0a.21.21,0,0,1-.11,0s-.14-.1-.17-.1h-.1a.22.22,0,0,0-.07-.06l-.33,0a1.29,1.29,0,0,0-.19,0c-.06,0-.29,0-.35,0h-.15a1.94,1.94,0,0,0-.41,0c-.06,0-.1.06-.15.06l-.29,0-.15,0" fill="#00a040"/><path d="M150.33,15.18a.34.34,0,0,0-.2,0,.49.49,0,0,1-.16.05s-.05,0-.08.07,0,0-.08,0a.34.34,0,0,0-.12,0,1.46,1.46,0,0,0-.09.13l-.12.27c0,.09,0,.14,0,.18s0,.16,0,.23a.65.65,0,0,0,.05.3.62.62,0,0,0,.18.18l.21.16s0,0,.08,0a.14.14,0,0,0,.11,0,.14.14,0,0,1,.11,0,.15.15,0,0,0,.12,0l.17-.06.13,0a.09.09,0,0,0,.08,0,.36.36,0,0,1,.12-.08.17.17,0,0,0,.1-.06s.06-.12.08-.14,0-.07.06-.09a.75.75,0,0,0,.07-.12.26.26,0,0,0,0-.08s0-.11,0-.17,0-.12,0-.16,0-.12-.07-.15-.06-.09-.07-.12,0-.08,0-.11a.15.15,0,0,0-.06-.13.84.84,0,0,0-.19-.09l-.16-.07-.12,0h-.06l0,0" fill="#00a040"/><path d="M161.45,12.3h-.25a5.22,5.22,0,0,0-.56,0h-.14a.15.15,0,0,0-.13,0c-.06,0-.22,0-.29,0a1,1,0,0,1-.21,0,.18.18,0,0,0-.13,0c-.07,0-.44.1-.51.12l-.15,0-.17,0s-.47.16-.52.19-.09,0-.14.06a.51.51,0,0,1-.13.09l-.19.07c-.05,0,0,0-.11,0a1.11,1.11,0,0,0-.18.12.5.5,0,0,1-.07.08s-.24.13-.32.19a1.75,1.75,0,0,1-.26.18l-.35.31a3.2,3.2,0,0,0-.26.24l-.14.16s-.07,0-.06,0,0,.06,0,.06a.15.15,0,0,0-.08,0l-.08.11s-.11.15-.13.19,0,.07-.06.07,0,0,0,.05a.11.11,0,0,1,0,.09l-.11.15a.45.45,0,0,0-.09.1.33.33,0,0,1-.05.12l-.27.46c0,.06-.08.11-.08.13s0,.08,0,.1A.15.15,0,0,0,155,16a.38.38,0,0,0,0,.1.09.09,0,0,1-.06.06l0,.11a.61.61,0,0,1-.09.18l-.07.09a.33.33,0,0,1,0,.1s-.09,0-.09.08,0,.08,0,.11l-.08.11a.38.38,0,0,0,0,.19.16.16,0,0,1,0,.13.55.55,0,0,0-.07.18,5.26,5.26,0,0,0-.18.6.64.64,0,0,1-.05.22s0,0,0,.08a1.13,1.13,0,0,0,0,.15s0,.06,0,.08,0,.08-.05.12a.37.37,0,0,0,0,.16.39.39,0,0,1,0,.16.39.39,0,0,0-.05.14.42.42,0,0,1,0,.13,2.18,2.18,0,0,1-.05.29c0,.06,0,.44,0,.51s0,.4.06.5a.66.66,0,0,1,0,.15s0,.06,0,.09-.07.07,0,.08a.4.4,0,0,1,.07.07.32.32,0,0,0,.08.09,1.63,1.63,0,0,0,.17.11.21.21,0,0,0,.13.05s.07,0,.11,0h.11a.61.61,0,0,0,.21-.12.88.88,0,0,0,.12-.19,1.79,1.79,0,0,0,.12-.24,1,1,0,0,1,.08-.15.56.56,0,0,0,.07-.18c0-.06.08-.34.11-.45l.06-.34a1.73,1.73,0,0,1,0-.2s0-.06,0-.16,0-.25.05-.32a.75.75,0,0,0,0-.16c0-.08,0-.18,0-.23s.13-.34.15-.41.08-.24.1-.33a2.62,2.62,0,0,1,.14-.47.31.31,0,0,0,.06-.14.63.63,0,0,1,.06-.18,1.29,1.29,0,0,0,.09-.16s0-.12.06-.15.06-.08.08-.12a1.6,1.6,0,0,0,.11-.19c0-.06.1-.22.13-.26l.06-.1a.19.19,0,0,1,.05-.1.63.63,0,0,1,.07-.1s.05-.08.08-.11,0-.09.07-.11,0,0,0,0,.08,0,.07-.08,0-.08.05-.11.07-.11.12-.17a1.47,1.47,0,0,1,.15-.17s0-.05.08-.06h.07a.13.13,0,0,1,0-.07s.12-.12.16-.15.1-.14.13-.15,0,0,.08,0,.07,0,.11,0l.13-.09.47-.32.36-.18.19-.07s0,0,.08,0h.1s0-.05.1-.07l.39-.1a3.89,3.89,0,0,1,.55-.12h.41c.05,0,0,0,.06,0h.41l.42,0a.15.15,0,0,1,.1,0h.11a2.58,2.58,0,0,0,.38,0,.71.71,0,0,0,.33-.13.41.41,0,0,0,.1-.18.19.19,0,0,1,0-.07s0,0,0-.07,0-.16,0-.18-.06-.07-.09-.12a.91.91,0,0,1-.1-.13l-.15-.13s-.09,0-.11,0a.27.27,0,0,1-.08-.07.11.11,0,0,0-.08,0,.81.81,0,0,1-.2,0l-.13,0s-.08,0-.1,0,0,0,0,0h-.08a.19.19,0,0,0-.09,0" fill="#00a040"/><path d="M159.34,15.31a.43.43,0,0,0-.08.11l-.07.11a.26.26,0,0,0-.07.13l-.06.16A.91.91,0,0,1,159,16a.29.29,0,0,0,0,.14,1.05,1.05,0,0,0,.06.24,1.3,1.3,0,0,0,.08.17s0,0,0,.07a.47.47,0,0,1,.1.1.6.6,0,0,1,.06.11l.06,0,.09,0s.07,0,.1,0a.74.74,0,0,0,.14,0l.08,0h.16a.65.65,0,0,0,.2-.05.94.94,0,0,0,.15-.08s.08,0,.12-.06l.09-.09a.16.16,0,0,0,.09-.05.15.15,0,0,0,.05-.08s0-.12,0-.14,0-.06,0-.09,0-.11.05-.12,0,0,0-.05.06,0,0-.07,0-.08,0-.09a.12.12,0,0,0,0-.11c0-.06,0-.08-.05-.1s0-.06-.06-.1a.23.23,0,0,0,0-.1l-.19-.19s-.05-.06-.07-.07l-.11,0s0,0-.07,0h-.09l-.13-.05a.43.43,0,0,0-.13,0l-.11,0a.79.79,0,0,1-.13,0l-.09.07s-.07,0-.13,0" fill="#00a040"/><path d="M151.63,23.91a2.74,2.74,0,0,0-.29,0c-.06,0-.05.05-.08.06a.5.5,0,0,0-.16,0l-.19.12a.3.3,0,0,0-.08.07.89.89,0,0,0-.06.32c0,.12,0,.23,0,.27s0,.06,0,.08,0,.08.08.08.06,0,.1,0a.13.13,0,0,1,.06.07,2.84,2.84,0,0,0,.29.21l.38.18.31.11c.06,0,.05.05.09.05a.39.39,0,0,1,.15,0,1,1,0,0,0,.14.08s.07,0,.1,0,0,.07.08.07.2,0,.25,0l.23,0a.34.34,0,0,1,.1,0H154a.9.9,0,0,0,.24,0l.14,0,.16,0c.07,0,.07,0,.1,0a.23.23,0,0,1,.11,0h.09s.11,0,.15,0l.53-.08c.09,0,.18,0,.2,0s.05-.06.1-.06a.12.12,0,0,0,.1,0s.1,0,.16-.05l.38-.16a3.89,3.89,0,0,0,.41-.19,1,1,0,0,1,.17-.09.23.23,0,0,1,.1,0,.54.54,0,0,0,.17-.09,1.41,1.41,0,0,0,.18-.17.86.86,0,0,1,.15-.2s.06,0,.08-.08,0-.09,0-.11a.17.17,0,0,0,0-.12.52.52,0,0,0,0-.22.6.6,0,0,0-.08-.16s-.1-.06-.11-.08,0,0-.07,0,0,0-.06,0l0-.05a.07.07,0,0,0-.07-.05.24.24,0,0,1-.12,0s0,0-.07,0a.5.5,0,0,0-.13,0l-.27,0a.68.68,0,0,0-.15,0l-.37.15-.33.15-.38.18a1.14,1.14,0,0,1-.16.08l-.2,0a3.4,3.4,0,0,1-.34.07,3,3,0,0,1-.43.06h-.65a2.3,2.3,0,0,1-.41-.05l-.46-.08c-.11,0-.39-.11-.53-.15L152,24l-.32-.13" fill="#00a040"/><rect x="180.29" y="7.03" width="7.99" height="2" rx="0.45" fill="#00a040"/><path d="M191.83,0H176.75a.45.45,0,0,0-.45.45V15.57a.45.45,0,0,0,.45.45h15.08a.45.45,0,0,0,.45-.45V.48a.45.45,0,0,0-.45-.45M190.29,13.8a.22.22,0,0,1-.23.22H178.52a.22.22,0,0,1-.22-.22V2.25a.22.22,0,0,1,.22-.22h11.54a.22.22,0,0,1,.23.22Z" fill="#00a040"/><path d="M208.27,31.55a.45.45,0,0,1-.45.45h-1.1a.45.45,0,0,1-.45-.45V26.23a.22.22,0,0,0-.22-.22h-5.32a.45.45,0,0,1-.45-.45v-1.1a.45.45,0,0,1,.45-.45h7.09a.45.45,0,0,1,.45.45Z" fill="#00a040"/><path d="M202.94,30.67a1.33,1.33,0,1,1-1.33-1.33,1.32,1.32,0,0,1,1.33,1.33" fill="#00a040"/><path d="M211.82,20H196.73a.45.45,0,0,0-.45.45V35.55a.45.45,0,0,0,.45.45h15.09a.45.45,0,0,0,.45-.45V20.47a.45.45,0,0,0-.45-.45m-1.55,13.76A.22.22,0,0,1,210,34H198.5a.22.22,0,0,1-.22-.22V22.24a.22.22,0,0,1,.22-.23H210a.23.23,0,0,1,.23.23Z" fill="#00a040"/><path d="M184.29,29.56a.45.45,0,0,1-.45.45h-1.1a.45.45,0,0,1-.45-.45V22.24a.22.22,0,0,0-.22-.23h-5.32a.45.45,0,0,1-.45-.45v-1.1a.45.45,0,0,1,.45-.44h7.09a.45.45,0,0,1,.45.44Z" fill="#00a040"/><path d="M192.28,20.47a.45.45,0,0,0-.45-.45h-1.1a.45.45,0,0,0-.44.45v1.32a.22.22,0,0,1-.23.22h-3.32a.45.45,0,0,0-.45.45v1.1a.45.45,0,0,0,.45.45h5.09a.45.45,0,0,0,.45-.45Z" fill="#00a040"/><path d="M178.94,36a.42.42,0,0,0,.31-.13l3.62-3.61a.18.18,0,0,0,0-.11.15.15,0,0,0-.15-.15h-4.24a.23.23,0,0,1-.23-.22V30.23a.23.23,0,0,1,.23-.22h1.32a.45.45,0,0,0,.45-.45v-1.1a.45.45,0,0,0-.45-.45h-1.32a.23.23,0,0,1-.23-.23V26.23a.23.23,0,0,1,.23-.22h1.32a.45.45,0,0,0,.45-.45v-1.1a.45.45,0,0,0-.45-.45h-3.09a.45.45,0,0,0-.45.45v9.09a.45.45,0,0,0,.45.45h1.18a.15.15,0,0,1,.15.15.14.14,0,0,1,0,.11l-1.48,1.48a.16.16,0,0,0-.05.11.15.15,0,0,0,.15.15Z" fill="#00a040"/><path d="M190.73,36a.45.45,0,0,1-.44-.45v-2a.44.44,0,0,1,.13-.31L192,31.57a.15.15,0,0,1,.1,0,.15.15,0,0,1,.15.15v3.87a.45.45,0,0,1-.45.45Z" fill="#00a040"/><path d="M192.15,28.63a.48.48,0,0,0,.13-.32V26.46a.45.45,0,0,0-.45-.45h-1.1a.45.45,0,0,0-.44.45v1a.47.47,0,0,1-.14.32l-7.94,7.94a.16.16,0,0,0-.05.11.15.15,0,0,0,.15.15h2.28a.46.46,0,0,0,.32-.13Z" fill="#00a040"/><path d="M208.27,12.47a.45.45,0,0,0-.45-.45H205.5a.22.22,0,0,1-.23-.22V4.25A.22.22,0,0,1,205.5,4h6.32a.45.45,0,0,0,.45-.45V2.48a.45.45,0,0,0-.45-.45H205.5a.22.22,0,0,1-.23-.22V.48a.45.45,0,0,0-.45-.45h-1.1a.45.45,0,0,0-.44.45V1.81a.23.23,0,0,1-.23.22h-6.32a.45.45,0,0,0-.45.45v1.1a.45.45,0,0,0,.45.45h6.32a.23.23,0,0,1,.23.22V11.8a.24.24,0,0,1-.23.22h-2.32a.45.45,0,0,0-.45.45v1.1a.45.45,0,0,0,.45.45h2.32a.24.24,0,0,1,.23.22v1.33a.44.44,0,0,0,.44.45h1.1a.45.45,0,0,0,.45-.45V14.24a.22.22,0,0,1,.23-.22h2.32a.45.45,0,0,0,.45-.45Z" fill="#00a040"/><path d="M201.14,9.16a.45.45,0,0,0,.14-.32V6.56a.15.15,0,0,0-.15-.15.18.18,0,0,0-.11,0l-4.61,4.61a.46.46,0,0,0-.13.32v2.28a.15.15,0,0,0,.15.15.16.16,0,0,0,.11-.05Z" fill="#00a040"/><path d="M207.4,9.16a.48.48,0,0,1-.13-.32V6.56a.15.15,0,0,1,.15-.15.21.21,0,0,1,.11,0l4.6,4.61a.43.43,0,0,1,.14.32v2.28a.15.15,0,0,1-.15.15.16.16,0,0,1-.11-.05Z" fill="#00a040"/><path d="M245.69,21.15a.41.41,0,0,1,.41-.41h1.54a.41.41,0,0,1,.41.41v8.67a4.2,4.2,0,0,0,.53,2.5,2.56,2.56,0,0,0,2.21,1.14,2.47,2.47,0,0,0,2.17-1.1,4.17,4.17,0,0,0,.54-2.54V21.15a.41.41,0,0,1,.41-.41h1.55a.41.41,0,0,1,.41.41v8.67c0,1.93-.3,3.39-1.58,4.45a5,5,0,0,1-3.47,1.28,5.24,5.24,0,0,1-3.53-1.26c-1.44-1.27-1.62-2.7-1.6-4.47Z" fill="#00a040"/><path d="M220.26,21.15a.41.41,0,0,1,.41-.41h6.81a.41.41,0,0,1,.41.41v1.18a.41.41,0,0,1-.41.41h-4.65a.2.2,0,0,0-.21.2V26.8a.21.21,0,0,0,.21.21h4.65a.41.41,0,0,1,.41.41V28.6a.41.41,0,0,1-.41.41h-4.65a.2.2,0,0,0-.21.2v5.66a.4.4,0,0,1-.41.4h-1.54a.4.4,0,0,1-.41-.4Z" fill="#00a040"/><path d="M300.19,22.94a.2.2,0,0,0-.2-.2h-2.66a.41.41,0,0,1-.41-.41V21.15a.41.41,0,0,1,.41-.41h8.08a.41.41,0,0,1,.41.41v1.18a.41.41,0,0,1-.41.41h-2.65a.2.2,0,0,0-.21.2V34.87a.4.4,0,0,1-.41.4H300.6a.41.41,0,0,1-.41-.4Z" fill="#00a040"/><path d="M283.34,23.1c-1.61-2.06-4-2.36-6-2.36h-4a.41.41,0,0,0-.41.41V34.87a.41.41,0,0,0,.41.4h4.18c5.1,0,7.4-3,7.4-7.28a7.38,7.38,0,0,0-1.59-4.89m-5.71,10.18h-2.3a.21.21,0,0,1-.21-.21V22.94a.2.2,0,0,1,.21-.2h2.32a4.5,4.5,0,0,1,3.73,1.55A5.94,5.94,0,0,1,282.66,28c0,3-1.58,5.25-5,5.25" fill="#00a040"/><rect x="307.28" y="20.74" width="2.36" height="14.53" rx="0.41" fill="#00a040"/><path d="M236.52,20.47A7.54,7.54,0,1,0,244.06,28a7.54,7.54,0,0,0-7.54-7.54m0,12.9A5.36,5.36,0,1,1,241.88,28a5.36,5.36,0,0,1-5.36,5.36" fill="#00a040"/><path d="M319,20.47A7.54,7.54,0,1,0,326.53,28,7.53,7.53,0,0,0,319,20.47m0,12.9A5.36,5.36,0,1,1,324.35,28,5.36,5.36,0,0,1,319,33.37" fill="#00a040"/><path d="M270.22,34.87a.41.41,0,0,1-.41.4h-1.36a.41.41,0,0,1-.34-.17l-7.27-10.39a.14.14,0,0,0-.11-.06.14.14,0,0,0-.14.14V34.87a.4.4,0,0,1-.41.4h-1.36a.4.4,0,0,1-.41-.4V21.15a.41.41,0,0,1,.41-.41h1.36a.42.42,0,0,1,.34.18l7.27,10.39a.14.14,0,0,0,.11.05.13.13,0,0,0,.14-.13V21.15a.41.41,0,0,1,.41-.41h1.36a.41.41,0,0,1,.41.41Z" fill="#00a040"/><path d="M340.16,34.87a.41.41,0,0,1-.41.4h-1.36a.41.41,0,0,1-.34-.17l-7.27-10.39a.14.14,0,0,0-.11-.06.14.14,0,0,0-.14.14V34.87a.4.4,0,0,1-.41.4h-1.36a.4.4,0,0,1-.41-.4V21.15a.41.41,0,0,1,.41-.41h1.36a.42.42,0,0,1,.34.18l7.27,10.39a.16.16,0,0,0,.11.05.13.13,0,0,0,.14-.13V21.15a.41.41,0,0,1,.41-.41h1.36a.41.41,0,0,1,.41.41Z" fill="#00a040"/><path d="M298.69,34.71,293,21a.42.42,0,0,0-.38-.25H291.2a.42.42,0,0,0-.38.25l-5.65,13.72a.41.41,0,0,0,0,.16.4.4,0,0,0,.41.4h1.64a.39.39,0,0,0,.38-.26l1.1-2.92a.41.41,0,0,1,.38-.27h5.75a.4.4,0,0,1,.38.27l1.1,2.92a.39.39,0,0,0,.38.26h1.65a.4.4,0,0,0,.41-.4.41.41,0,0,0,0-.16m-4.36-4.79a.14.14,0,0,1-.13.09h-4.55a.14.14,0,0,1-.13-.09s0,0,0-.05,0,0,0-.05l2.28-6.07a.14.14,0,0,1,.13-.09.14.14,0,0,1,.12.09l2.28,6.07a.13.13,0,0,1,0,.1" fill="#00a040"/><path d="M226.64,3.22a.22.22,0,0,1,.22-.22h2.63a.44.44,0,0,0,.44-.44V.73a.44.44,0,0,0-.44-.44H220.7a.44.44,0,0,0-.44.44V2.56a.44.44,0,0,0,.44.44h2.63a.22.22,0,0,1,.22.22v12.1a.43.43,0,0,0,.43.44h2.22a.43.43,0,0,0,.44-.44Z" fill="#00a040"/><path d="M243.85.72a.43.43,0,0,0-.43-.43h-2.23a.43.43,0,0,0-.43.43V6.45a.22.22,0,0,1-.22.22H235a.22.22,0,0,1-.22-.22V.72a.43.43,0,0,0-.43-.43H232.1a.43.43,0,0,0-.43.43v14.6a.44.44,0,0,0,.43.44h2.23a.44.44,0,0,0,.43-.44V9.6a.22.22,0,0,1,.22-.22h5.56a.22.22,0,0,1,.22.22v5.72a.44.44,0,0,0,.43.44h2.23a.44.44,0,0,0,.43-.44Z" fill="#00a040"/><path d="M246.37,15.32a.44.44,0,0,0,.43.44h7.83a.44.44,0,0,0,.44-.44V13.49a.44.44,0,0,0-.44-.44h-4.95a.21.21,0,0,1-.22-.21V9.6a.22.22,0,0,1,.22-.22h4.95a.44.44,0,0,0,.44-.44V7.11a.44.44,0,0,0-.44-.44h-4.95a.22.22,0,0,1-.22-.22V3.22a.22.22,0,0,1,.22-.22h4.95a.44.44,0,0,0,.44-.44V.72a.44.44,0,0,0-.44-.43H246.8a.43.43,0,0,0-.43.43Z" fill="#00a040"/><path d="M279.68.29h2.22a.44.44,0,0,1,.44.44v14.6a.43.43,0,0,1-.43.43h-2.22a.44.44,0,0,1-.44-.44V.73a.44.44,0,0,1,.44-.44Z" fill="#00a040"/><path d="M317.63,0a8,8,0,1,0,8,8,8,8,0,0,0-8-8m0,13.05a5,5,0,1,1,5-5,5,5,0,0,1-5,5" fill="#00a040"/><path d="M294.31,1.36c-.9-.7-1.94-1.07-4.56-1.07h-4.27a.44.44,0,0,0-.44.44V15.32a.44.44,0,0,0,.44.44h2.22a.44.44,0,0,0,.44-.44V10.66a.22.22,0,0,1,.22-.22h1.73c2.26,0,3.3-.38,4.35-1.23a5.26,5.26,0,0,0,1.63-3.91,5.09,5.09,0,0,0-1.76-3.94m-2.26,6a4.15,4.15,0,0,1-2,.4h-1.66a.21.21,0,0,1-.22-.21V3.22a.21.21,0,0,1,.22-.22h1.53a4.31,4.31,0,0,1,2.11.4,2,2,0,0,1,1.07,1.94,2.15,2.15,0,0,1-1,2" fill="#00a040"/><path d="M306.88,1.36c-.9-.7-1.94-1.07-4.56-1.07h-4.27a.44.44,0,0,0-.44.44V15.32a.44.44,0,0,0,.44.44h2.22a.44.44,0,0,0,.44-.44V10.66a.22.22,0,0,1,.22-.22h1.73c2.25,0,3.3-.38,4.35-1.23a5.26,5.26,0,0,0,1.63-3.91,5.09,5.09,0,0,0-1.76-3.94m-2.27,6a4.09,4.09,0,0,1-2,.4h-1.66a.21.21,0,0,1-.22-.21V3.22a.21.21,0,0,1,.22-.22h1.53a4.31,4.31,0,0,1,2.11.4,2,2,0,0,1,1.07,1.94,2.14,2.14,0,0,1-1,2" fill="#00a040"/><path d="M273.18,10.71a.11.11,0,0,0,.11.06.15.15,0,0,0,.15-.14V.73a.43.43,0,0,1,.44-.44h2a.43.43,0,0,1,.43.44V15.32a.43.43,0,0,1-.43.44h-2a.45.45,0,0,1-.37-.19L266.75,5.34a.17.17,0,0,0-.13-.07.15.15,0,0,0-.14.15v9.9a.44.44,0,0,1-.44.44h-2a.43.43,0,0,1-.43-.44V.73A.43.43,0,0,1,264,.29h2a.45.45,0,0,1,.37.19Z" fill="#00a040"/><path d="M337,10.71a.14.14,0,0,0,.12.06.15.15,0,0,0,.15-.14V.73a.43.43,0,0,1,.43-.44h2a.44.44,0,0,1,.44.44V15.32a.44.44,0,0,1-.44.44h-2a.45.45,0,0,1-.36-.19L330.56,5.34a.14.14,0,0,0-.12-.07.15.15,0,0,0-.14.15v9.9a.44.44,0,0,1-.44.44h-2a.44.44,0,0,1-.44-.44V.73a.44.44,0,0,1,.44-.44h2a.44.44,0,0,1,.36.19Z" fill="#00a040"/><path d="M1.63,21.91a2.93,2.93,0,0,0,2.91,2.93,2.84,2.84,0,0,0,2.9-2.77C7.44,20,5.7,19.57,4,19,2.83,18.67.3,17.92.3,15.17c0-2.57,2.1-4,4.32-4a3.91,3.91,0,0,1,4.12,3.75H7.13a2.51,2.51,0,0,0-2.57-2.38A2.51,2.51,0,0,0,1.9,15c0,1.77,1.42,2.2,3.62,2.94,1.37.53,3.53,1.3,3.53,4a4.23,4.23,0,0,1-4.49,4.26A4.29,4.29,0,0,1,0,21.91Z" fill="#00a040"/><path d="M20.91,26H19.54V24.07a3.93,3.93,0,0,1-3.91,2.18c-3.3-.06-4.46-2.3-4.46-4.87v-6h1.44v5.72c0,2.27,1,3.8,3.39,3.78a3.21,3.21,0,0,0,3.46-3.53v-6h1.45Z" fill="#00a040"/><path d="M23.74,15.39h1.37v2.2a4.87,4.87,0,0,1,4.42-2.49A5.38,5.38,0,0,1,35,20.71a5.37,5.37,0,0,1-5.42,5.54,4.72,4.72,0,0,1-4.34-2.45V30H23.74Zm9.76,5.26a4.13,4.13,0,0,0-4.24-4.22,4.18,4.18,0,0,0-3,1.24,4.39,4.39,0,0,0-1.18,3,4.12,4.12,0,0,0,4.21,4.2,4.12,4.12,0,0,0,4.2-4.22Z" fill="#00a040"/><path d="M37.17,15.39h1.37v2.2A4.87,4.87,0,0,1,43,15.1a5.38,5.38,0,0,1,5.42,5.61A5.37,5.37,0,0,1,43,26.25a4.7,4.7,0,0,1-4.34-2.45V30H37.17Zm9.76,5.26a4.13,4.13,0,0,0-4.24-4.22,4.18,4.18,0,0,0-3,1.24,4.39,4.39,0,0,0-1.18,3,4.12,4.12,0,0,0,4.21,4.2,4.12,4.12,0,0,0,4.2-4.22Z" fill="#00a040"/><path d="M50,20.65a5.61,5.61,0,0,1,11.21,0,5.61,5.61,0,0,1-11.21,0Zm1.44,0a4.16,4.16,0,1,0,8.32,0,4.16,4.16,0,1,0-8.32,0Z" fill="#00a040"/><path d="M63.34,15.39h1.38v1.73a3.58,3.58,0,0,1,3.38-2v1.43H68c-2,0-3.18,1.27-3.18,3.67V26H63.34Z" fill="#00a040"/><polygon points="71.02 16.55 68.94 16.55 68.94 15.39 71.02 15.39 71.02 11.42 72.46 11.42 72.46 15.39 74.77 15.39 74.77 16.55 72.46 16.55 72.46 25.95 71.02 25.95 71.02 16.55" fill="#00a040"/><path d="M76.42,21.09A4,4,0,0,0,80.54,25a3.91,3.91,0,0,0,3.64-2.18h1.51a5.63,5.63,0,0,1-2.14,2.58,5.55,5.55,0,0,1-3,.86,5.58,5.58,0,0,1,0-11.15,5.41,5.41,0,0,1,5.52,6Zm8.19-1.16a4.12,4.12,0,0,0-8.17,0Z" fill="#00a040"/><path d="M98.67,26h-1.4V23.77a4.66,4.66,0,0,1-4.36,2.48,5.38,5.38,0,0,1-5.46-5.6,5.35,5.35,0,0,1,5.44-5.55,4.64,4.64,0,0,1,4.32,2.43V11.42h1.46Zm-9.78-5.29a4.12,4.12,0,0,0,4.24,4.23,4.2,4.2,0,0,0,3-1.24,4.15,4.15,0,0,0,1.18-3.05,4,4,0,0,0-1.22-3,4.09,4.09,0,0,0-3-1.22,4.13,4.13,0,0,0-4.22,4.22Z" fill="#00a040"/><path d="M107.19,11.42h1.45v6.09a5,5,0,0,1,4.3-2.41,5.35,5.35,0,0,1,5.44,5.55,5.38,5.38,0,0,1-5.48,5.6,4.68,4.68,0,0,1-4.32-2.48V26h-1.39Zm9.74,9.23a4.19,4.19,0,1,0-8.37,0,4.19,4.19,0,1,0,8.37,0Z" fill="#00a040"/><polygon points="122.98 25.76 118.89 15.39 120.44 15.39 123.76 23.93 127.18 15.39 128.77 15.39 122.74 29.96 121.17 29.96 122.98 25.76" fill="#00a040"/></svg>