<?xml version="1.0" encoding="utf-8"?>
<!-- Generator: Adobe Illustrator 25.0.0, SVG Export Plug-In . SVG Version: 6.00 Build 0)  -->
<svg version="1.1" id="レイヤー_1" xmlns="http://www.w3.org/2000/svg" xmlns:xlink="http://www.w3.org/1999/xlink" x="0px"
	 y="0px" viewBox="0 0 166.6 114.6" style="enable-background:new 0 0 166.6 114.6;" xml:space="preserve">
<style type="text/css">
	.st0{fill:#FFFFFF;}
	.st1{fill:#328AB6;}
	.st2{fill:#040000;}
</style>
<g>
	<circle class="st0" cx="56.2" cy="43" r="23.1"/>
	<path class="st1" d="M56.2,68.8c-14.2,0-25.8-11.6-25.8-25.8s11.6-25.8,25.8-25.8S82,28.8,82,43S70.4,68.8,56.2,68.8z M56.2,22.7
		C45,22.7,35.9,31.8,35.9,43S45,63.3,56.2,63.3S76.5,54.2,76.5,43S67.4,22.7,56.2,22.7z"/>
</g>
<g>
	<circle class="st0" cx="102.3" cy="43" r="23.1"/>
	<path class="st1" d="M102.3,68.8c-14.2,0-25.8-11.6-25.8-25.8s11.6-25.8,25.8-25.8s25.8,11.6,25.8,25.8S116.6,68.8,102.3,68.8z
		 M102.3,22.7C91.1,22.7,82,31.8,82,43s9.1,20.3,20.3,20.3s20.3-9.1,20.3-20.3S113.5,22.7,102.3,22.7z"/>
</g>
<circle class="st1" cx="45.8" cy="43" r="12.7"/>
<circle class="st1" cx="91.9" cy="43" r="12.7"/>
<circle class="st1" cx="33.1" cy="9.9" r="4.2"/>
<circle class="st1" cx="50.1" cy="4.2" r="4.2"/>
<circle class="st1" cx="68.3" cy="5.7" r="4.2"/>
<path class="st2" d="M50.1,99.4c0.6-1.1,1.3-1.9,2.1-2.5c0.8-0.5,1.8-0.8,3-0.8c0.3,0,0.6,0,0.9,0c0.3,0,0.6,0.1,0.9,0.1v5
	c-0.4-0.1-0.8-0.2-1.1-0.3c-0.4-0.1-0.8-0.1-1.2-0.1c-1,0-1.9,0.1-2.5,0.4c-0.6,0.3-1.1,0.7-1.4,1.2c-0.3,0.5-0.5,1.1-0.6,1.9"/>
<path class="st2" d="M148.5,78.5c-10,0-18,8.1-18,18s8.1,18,18,18s18-8.1,18-18S158.5,78.5,148.5,78.5z M148.5,108.2
	c-6.4,0-11.7-5.2-11.7-11.7s5.2-11.7,11.7-11.7s11.7,5.2,11.7,11.7S155,108.2,148.5,108.2z"/>
<rect x="87" y="86.3" class="st2" width="5.5" height="27.5"/>
<rect x="30.9" y="96.1" class="st2" width="5.5" height="17.7"/>
<rect x="44.7" y="96.1" class="st2" width="5.5" height="17.7"/>
<circle class="st2" cx="33.6" cy="90.5" r="3.1"/>
<path class="st2" d="M18.9,106.4c-1.4,1.4-3.3,2.3-5.5,2.3c-4.3,0-7.7-3.5-7.7-7.7c0-4.3,3.5-7.7,7.7-7.7c2.1,0,4.1,0.9,5.5,2.3l4-4
	c-2.4-2.4-5.8-3.9-9.5-3.9C6,87.5,0,93.5,0,100.9s6,13.4,13.4,13.4c3.7,0,7.1-1.5,9.5-3.9L18.9,106.4z"/>
<path class="st2" d="M75.2,108c-0.8,0.8-1.9,1.3-3.1,1.3c-2.4,0-4.3-1.9-4.3-4.3c0-2.4,1.9-4.3,4.3-4.3c1.2,0,2.3,0.5,3.1,1.3
	l3.6-3.6c-1.7-1.7-4.1-2.8-6.7-2.8c-5.2,0-9.4,4.2-9.4,9.4c0,5.2,4.2,9.4,9.4,9.4c2.6,0,5-1.1,6.7-2.8L75.2,108z"/>
<path class="st2" d="M108.2,109.2c-2.4,0-4.3-1.9-4.3-4.3h4.3h4.3h3.9c0.1-6.2-3.7-10.1-8.9-10.1s-8.7,4.9-8.7,10.1
	c0,5.2,4.2,9.4,9.4,9.4c2.6,0,5-1.1,6.7-2.8l-3.6-3.6C110.4,108.8,109.4,109.2,108.2,109.2z M107.6,98.2c1.9,0,3.4,1.7,3.4,3.8h-6.8
	C104.2,99.9,105.7,98.2,107.6,98.2z"/>
<circle class="st1" cx="124.2" cy="9.9" r="4.2"/>
<circle class="st1" cx="107.3" cy="4.2" r="4.2"/>
<circle class="st1" cx="89.1" cy="5.7" r="4.2"/>
</svg>
