<?xml version="1.0" encoding="utf-8"?>
<!-- Generator: Adobe Illustrator 23.0.3, SVG Export Plug-In . SVG Version: 6.00 Build 0)  -->
<svg version="1.1" id="Capa_1" xmlns="http://www.w3.org/2000/svg" xmlns:xlink="http://www.w3.org/1999/xlink" x="0px" y="0px"
	 viewBox="0 0 41.5 84.5" style="enable-background:new 0 0 41.5 84.5;" xml:space="preserve">
<style type="text/css">
	.st0{fill:#A09A32;}
</style>
<g>
	<path class="st0" d="M41.1,84.1C29.4,80,18.8,72.6,12.8,55.6c-5.2-14.5-2.5-30.7,8-48.2l0.8,0.4C11.3,25.1,8.6,41,13.7,55.3
		c6,16.7,16.2,23.9,27.8,28L41.1,84.1z"/>
	<path class="st0" d="M14.6,59.9l0.4,0c0.1,0,0.2,0,0.3-0.1c0.1,0,0.1-0.1,0.2-0.1l0.2-0.3c1.7-1.8,3.6-3.9,3.8-8.7
		c0.1-4.9-2.6-9.7-2.7-9.9c-0.1-0.2-0.3-0.3-0.5-0.3c-0.2,0-0.4,0.1-0.5,0.3c-0.3,0.6-0.5,1.1-0.7,1.6c-1.8,3.9-2.9,6.2-1.5,13
		c-4-6.5-6.7-8.6-11-10.3C2,45,1.4,44.8,0.8,44.5c-0.2-0.1-0.4,0-0.6,0.1C0,44.8,0,45,0,45.2c0.1,0.2,1.7,7.1,5.4,10.8
		C9,59.7,12,59.8,14.6,59.9z"/>
	<path class="st0" d="M10.2,39.8l0.3,0.2c0,0,0,0,0,0c0.1,0,0.2,0.1,0.3,0.1c0,0,0,0,0.1,0l0.3-0.1c2-0.7,4.2-1.5,6.2-5
		c2-3.6,1.8-8.3,1.8-8.5c0-0.2-0.1-0.4-0.3-0.4c-0.2-0.1-0.4-0.1-0.5,0.1c-0.4,0.3-0.8,0.6-1.2,0.9c-2.9,2.2-4.5,3.5-6.1,9.1
		c-0.4-6.5-1.9-8.2-4.5-11.1c-0.3-0.4-0.7-0.8-1-1.2c-0.1-0.1-0.3-0.2-0.5-0.2c-0.2,0-0.3,0.2-0.4,0.4C4.7,24,3.3,29,4.6,33.2
		C5.9,37.3,8.3,38.6,10.2,39.8z"/>
	<path class="st0" d="M29.1,72.2c-0.1-0.1-0.3,0-0.4,0c-0.1,0.1-0.1,0.2-0.1,0.3c0.1,0.3,0.1,0.7,0.2,1c0.4,2.2,0.6,3.6,2.9,5.8
		c-3.3-1.6-4.9-1.4-7.4-1c-0.3,0.1-0.7,0.1-1.1,0.2c-0.1,0-0.2,0.1-0.3,0.2c0,0.1,0,0.3,0.1,0.4c0.1,0.1,2.4,2.5,5.4,3.3
		c1.7,0.4,3,0.3,4.1,0c0.7-0.2,1.3-0.5,1.9-0.8l0.2-0.1c0,0,0,0,0.1,0c0,0,0.1,0,0.1-0.1c0,0,0,0,0-0.1c0,0,0,0,0-0.1l0-0.2
		c0.2-1.4,0.5-3-1-5.3C32.2,73.5,29.3,72.2,29.1,72.2z"/>
	<path class="st0" d="M25.1,74.4c0.1,0,0.1,0,0.2-0.1c0.1-0.1,0.2-0.1,0.3-0.3l0.1-0.3c0.9-2,1.9-4.2,0.3-8
		c-1.7-3.8-5.9-6.6-6.1-6.8C19.7,59,19.5,59,19.3,59c-0.2,0.1-0.3,0.2-0.3,0.4c0,0.5-0.1,1-0.1,1.5c-0.2,3.1-0.4,5,1.9,8.5
		c-4-3-6.7-4.5-10.6-5c-0.6-0.1-1.2-0.1-1.8-0.2c-0.2,0-0.4,0-0.6,0.2c-0.1,0.2-0.2,0.4-0.1,0.5c0.1,0.2,2.8,5.8,7.2,8.1
		c4.3,2.2,7.2,1.8,9.8,1.4L25.1,74.4z"/>
	<path class="st0" d="M28,0.5c-0.1-0.1-0.3-0.1-0.4-0.1c-0.2,0.1-4.6,1.8-7.1,4.7c-2.5,2.8-2.3,4.8-2.1,6.4l0,0.2
		c0,0.1,0.1,0.3,0.2,0.3c0.1,0,0.2,0,0.2,0c0.1,0,0.1,0,0.2-0.1c0.8-0.5,1.3-0.7,1.8-0.9c0.5-0.2,1-0.3,1.6-0.8
		c3.7-3,4.5-5.5,5.3-8.5c0.1-0.3,0.2-0.7,0.3-1.1C28.2,0.7,28.2,0.6,28,0.5z"/>
	<path class="st0" d="M21.2,16c-0.3,0.1-0.7,0.3-1,0.4c-2.2,0.9-3.6,1.5-5.4,4.3c0.9-3.6,0.3-5.1-0.6-7.4c-0.1-0.3-0.3-0.7-0.4-1
		c0-0.1-0.2-0.2-0.3-0.2c-0.1,0-0.3,0-0.3,0.2c-0.1,0.1-2.1,3-2.2,6c-0.1,3,1.1,4.4,2.1,5.6l0.1,0.2c0,0,0,0,0.1,0
		c0,0,0.1,0,0.1,0.1c0,0,0.1,0,0.1,0c0,0,0.1,0,0.1,0l0.2,0c0.7-0.1,1.3-0.1,2.1-0.3c1-0.3,2-0.8,3.1-2c2-2.1,2.7-5.3,2.7-5.4
		c0-0.1,0-0.3-0.1-0.3C21.4,15.9,21.3,15.9,21.2,16z"/>
</g>
</svg>
