<svg id="レイヤー_1" data-name="レイヤー 1" xmlns="http://www.w3.org/2000/svg" viewBox="0 0 123.54 123.54"><path d="M123.54,61.77A61.77,61.77,0,1,1,61.77,0a61.76,61.76,0,0,1,61.77,61.77" fill="#faee00"/><path d="M117.86,61.77A56.09,56.09,0,1,1,61.77,5.68a56.09,56.09,0,0,1,56.09,56.09" fill="#3094c4"/><path d="M65.53,53a14,14,0,1,1-14-14,14,14,0,0,1,14,14" fill="#faee00"/><path d="M62.53,111.3A42.72,42.72,0,0,0,65.7,94.57c0-14.65-6.33-26.51-14.14-26.51S37.42,79.92,37.42,94.57a42.74,42.74,0,0,0,3.21,16.82Z" fill="#faee00"/><path d="M51.62,79.08a14.53,14.53,0,0,1-9.73-3.74C39.18,80.17,37.48,87,37.48,94.57a42.74,42.74,0,0,0,3.21,16.82l21.9-.09a42.72,42.72,0,0,0,3.17-16.73c0-7.57-1.7-14.4-4.41-19.23a14.51,14.51,0,0,1-9.73,3.74" fill="#de4c22"/><path d="M97.28,39.31a1.82,1.82,0,1,1-1.81-1.81A1.81,1.81,0,0,1,97.28,39.31Z" fill="none" stroke="#fff" stroke-miterlimit="10"/><path d="M74.84,36.18a1.32,1.32,0,1,1-1.32-1.31,1.32,1.32,0,0,1,1.32,1.31" fill="#fff"/><path d="M82.53,36.18a1.32,1.32,0,1,1-1.32-1.31,1.32,1.32,0,0,1,1.32,1.31" fill="#fff"/><path d="M90.22,36.18a1.32,1.32,0,1,1-1.31-1.31,1.32,1.32,0,0,1,1.31,1.31" fill="#fff"/><path d="M51.62,52.94a3.6,3.6,0,1,1-3.6-3.6,3.6,3.6,0,0,1,3.6,3.6" fill="#fff"/><path d="M58.8,52.94a3.6,3.6,0,1,1-3.59-3.6,3.59,3.59,0,0,1,3.59,3.6" fill="#fff"/><path d="M51.09,53.73a2,2,0,1,1-2-2,2,2,0,0,1,2,2" fill="#3094c4"/><path d="M58.47,53.75a2,2,0,1,1-2-2,2,2,0,0,1,2,2" fill="#3094c4"/><path d="M45,48.76a.58.58,0,0,1-.59.58.59.59,0,1,1,.59-.58" fill="#3094c4"/><path d="M47.59,47.58a.6.6,0,0,1-.59.59.59.59,0,0,1-.59-.59A.58.58,0,0,1,47,47a.59.59,0,0,1,.59.59" fill="#3094c4"/><path d="M50.28,47.85a.58.58,0,0,1-.59.59.59.59,0,0,1-.59-.59.6.6,0,0,1,.59-.59.59.59,0,0,1,.59.59" fill="#3094c4"/><path d="M58.07,48.76a.59.59,0,1,0,.58-.59.58.58,0,0,0-.58.59" fill="#3094c4"/><path d="M55.5,47.58a.59.59,0,0,0,.59.59.6.6,0,0,0,.59-.59.59.59,0,0,0-.59-.59.58.58,0,0,0-.59.59" fill="#3094c4"/><path d="M52.81,47.85a.59.59,0,1,0,1.17,0,.59.59,0,1,0-1.17,0" fill="#3094c4"/><path d="M44.43,52.94A3.59,3.59,0,0,1,51,50.86" fill="#3094c4"/><path d="M74.61,73.9l-.15.12L71.84,76.1l0-.43,3.48-3a.73.73,0,0,0-.06-1,.75.75,0,0,0-1.06.06L71.22,74.3,71,74.06l3.51-3.6a.76.76,0,1,0-1.14-1L70.17,72.9a.56.56,0,0,1-.61.13l2.52-3.78a.73.73,0,0,0-.07-1,.72.72,0,0,0-1,.06l-2.55,3.57a4.35,4.35,0,0,1-1.91,1.51L65.31,71l0,0a.85.85,0,0,0-1.16-.26.83.83,0,0,0-.26,1.15l0,0,.2.4a8.78,8.78,0,0,1,.83,4A3.47,3.47,0,0,0,71,78.57l4.48-3.66a.68.68,0,0,0-.06-1,.69.69,0,0,0-1,.06" fill="#faee00"/><path d="M67.48,88.2l-.2,0L64,87.82l.27-.34,4.58.31a.76.76,0,0,0,.7-.8.75.75,0,0,0-.8-.69l-3.93-.19,0-.31,5-.09a.76.76,0,0,0-.11-1.52L65,84.37a.56.56,0,0,1-.53-.34l4.45-.92a.72.72,0,0,0,.67-.77.73.73,0,0,0-.77-.68l-4.32.75a4.26,4.26,0,0,1-2.42-.27l.82-2.57v.05a.83.83,0,0,0-1.63-.36V79.2l-.14.43a8.84,8.84,0,0,1-2.22,3.44,3.41,3.41,0,0,0-1,2.7A3.45,3.45,0,0,0,61.62,89l5.76.54a.67.67,0,0,0-.1-1.34" fill="#faee00"/><path d="M58.76,52.94a3.59,3.59,0,0,0-6.52-2.08" fill="#3094c4"/></svg>