<svg id="レイヤー_1" data-name="レイヤー 1" xmlns="http://www.w3.org/2000/svg" viewBox="0 0 82.98 93.83"><path d="M41.36,21.12A17.41,17.41,0,1,1,24,3.72a17.4,17.4,0,0,1,17.41,17.4" fill="#faee00"/><path d="M37.62,93.83a53.25,53.25,0,0,0,4-20.86c0-18.24-7.89-33-17.62-33S6.34,54.73,6.34,73a53.14,53.14,0,0,0,4,21Z" fill="#faee00"/><path d="M24,53.67A18.12,18.12,0,0,1,11.91,49C8.52,55,6.41,63.54,6.41,73a53.14,53.14,0,0,0,4,21l27.29-.11A53.25,53.25,0,0,0,41.65,73c0-9.43-2.11-17.93-5.5-23.95A18.12,18.12,0,0,1,24,53.67" fill="#3094c4"/><path d="M24,21.09a4.48,4.48,0,1,1-4.47-4.47A4.48,4.48,0,0,1,24,21.09" fill="#fff"/><path d="M33,21.09a4.48,4.48,0,1,1-4.47-4.47A4.48,4.48,0,0,1,33,21.09" fill="#fff"/><path d="M23.37,22.09a2.46,2.46,0,1,1-2.46-2.46,2.46,2.46,0,0,1,2.46,2.46" fill="#3094c4"/><path d="M32.56,22.11a2.46,2.46,0,1,1-2.46-2.46,2.46,2.46,0,0,1,2.46,2.46" fill="#3094c4"/><path d="M15.81,15.88a.74.74,0,1,1-.74-.73.74.74,0,0,1,.74.73" fill="#3094c4"/><path d="M19,14.42a.73.73,0,1,1-.73-.74.73.73,0,0,1,.73.74" fill="#3094c4"/><path d="M22.36,14.76a.74.74,0,1,1-.73-.74.73.73,0,0,1,.73.74" fill="#3094c4"/><path d="M32.06,15.88a.74.74,0,1,0,.73-.73.74.74,0,0,0-.73.73" fill="#3094c4"/><path d="M28.86,14.42a.74.74,0,1,0,.74-.74.74.74,0,0,0-.74.74" fill="#3094c4"/><path d="M25.51,14.76a.73.73,0,1,0,.73-.74.73.73,0,0,0-.73.74" fill="#3094c4"/><circle cx="24.03" cy="32.18" r="2.95" transform="translate(-10.49 11.65) rotate(-22.5)" fill="none" stroke="#de4c22" stroke-miterlimit="10"/><path d="M21.89,6.11c0,3.37-3.38,6.1-7.55,6.1S6.79,9.48,6.79,6.11,10.17,0,14.34,0s7.55,2.73,7.55,6.11" fill="#3094c4"/><path d="M11.66,10.38c0,2.35-2.35,4.25-5.25,4.25s-5.25-1.9-5.25-4.25S3.51,6.13,6.41,6.13,11.66,8,11.66,10.38" fill="#3094c4"/><path d="M52.77,47l-.19.16-3.27,2.59-.06-.54,4.35-3.75a.93.93,0,0,0-1.4-1.23l-3.66,3.27-.24-.3,4.39-4.5a.95.95,0,1,0-1.42-1.25l-4.05,4.3a.69.69,0,0,1-.77.16l3.15-4.72a.9.9,0,0,0-.08-1.28.91.91,0,0,0-1.28.08l-3.18,4.46a5.39,5.39,0,0,1-2.39,1.88l-1.53-3,0,.06a1,1,0,0,0-1.77,1.11l0-.07.25.51a11.15,11.15,0,0,1,1.05,5,4.32,4.32,0,0,0,7.57,2.91l5.6-4.57a.84.84,0,1,0-1.26-1.11" fill="#faee00"/><path d="M43.86,64.83l-.25,0-4.14-.44.33-.43,5.73.39a.94.94,0,0,0-.14-1.87l-4.9-.23,0-.39,6.28-.11a1,1,0,0,0,.88-1,.94.94,0,0,0-1-.88l-5.9.22a.69.69,0,0,1-.66-.42l5.55-1.15a.91.91,0,1,0-.13-1.81l-5.39.94a5.42,5.42,0,0,1-3-.34l1-3.21v.06a1,1,0,0,0-2-.45l0-.08-.18.54a11.06,11.06,0,0,1-2.77,4.3,4.32,4.32,0,0,0,3.35,7.38l7.2.68a.84.84,0,1,0-.12-1.68" fill="#faee00"/><polygon points="82.98 44.09 61.46 37.04 61.46 14.97 82.98 22.03 82.98 44.09" fill="#3094c4"/><path d="M62.36,46.1a8.09,8.09,0,1,1,14.79,6.55" fill="#3094c4"/></svg>