<svg id="レイヤー_1" data-name="レイヤー 1" xmlns="http://www.w3.org/2000/svg" xmlns:xlink="http://www.w3.org/1999/xlink" viewBox="0 0 56.34 56.41"><defs><clipPath id="clip-path"><path d="M-.09,28.21A28.26,28.26,0,1,0,28.17,0,28.26,28.26,0,0,0-.09,28.21" fill="none"/></clipPath></defs><g clip-path="url(#clip-path)"><path d="M41,24A12.88,12.88,0,1,1,28.11,11.12,12.88,12.88,0,0,1,41,24" fill="#faee00"/><path d="M38.22,77.77a39.32,39.32,0,0,0,2.93-15.42c0-13.5-5.84-24.44-13-24.44s-13,10.94-13,24.44a39.25,39.25,0,0,0,3,15.5Z" fill="#faee00"/><path d="M28.17,48.07a13.41,13.41,0,0,1-9-3.44c-2.5,4.45-4.06,10.74-4.06,17.72a39.25,39.25,0,0,0,3,15.5l20.18-.08A39.33,39.33,0,0,0,41.2,62.35c0-7-1.56-13.27-4.06-17.72a13.41,13.41,0,0,1-9,3.44" fill="#3094c4"/><path d="M28.17,24a3.31,3.31,0,1,1-3.31-3.31A3.31,3.31,0,0,1,28.17,24" fill="#fff"/><path d="M34.79,24a3.31,3.31,0,1,1-3.31-3.31A3.31,3.31,0,0,1,34.79,24" fill="#fff"/><path d="M27.68,24.71a1.82,1.82,0,1,1-1.82-1.83,1.82,1.82,0,0,1,1.82,1.83" fill="#3094c4"/><path d="M34.48,24.72a1.82,1.82,0,1,1-1.82-1.82,1.81,1.81,0,0,1,1.82,1.82" fill="#3094c4"/><path d="M22.09,20.12a.55.55,0,0,1-.55.54.54.54,0,0,1-.54-.54.55.55,0,0,1,.54-.55.55.55,0,0,1,.55.55" fill="#3094c4"/><path d="M24.45,19a.54.54,0,1,1-.54-.54.54.54,0,0,1,.54.54" fill="#3094c4"/><path d="M26.94,19.28a.55.55,0,0,1-.55.55.55.55,0,0,1-.54-.55.54.54,0,0,1,.54-.54.55.55,0,0,1,.55.54" fill="#3094c4"/><path d="M34.11,20.12a.54.54,0,0,0,.54.54.55.55,0,0,0,.55-.54.55.55,0,0,0-.55-.55.55.55,0,0,0-.54.55" fill="#3094c4"/><path d="M31.75,19a.54.54,0,1,0,.54-.54.54.54,0,0,0-.54.54" fill="#3094c4"/><path d="M29.26,19.28a.55.55,0,1,0,1.09,0,.55.55,0,0,0-1.09,0" fill="#3094c4"/><path d="M50.06,40.52l-.17.14-3,2.35-.06-.49,3.94-3.39A.84.84,0,1,0,49.54,38l-3.31,3L46,40.7l4-4.06a.87.87,0,0,0-.08-1.22.86.86,0,0,0-1.21.08L45,39.39a.62.62,0,0,1-.69.15l2.84-4.27A.82.82,0,1,0,46,34.19l-2.88,4a4.88,4.88,0,0,1-2.16,1.7L39.54,37.2l0,0a.95.95,0,0,0-1.61,1l0-.06.22.46a9.94,9.94,0,0,1,1,4.52A3.91,3.91,0,0,0,46,45.8L51,41.67A.78.78,0,0,0,51,40.59a.77.77,0,0,0-1.07.07" fill="#faee00"/><path d="M30.35,32.17A2.18,2.18,0,1,1,28.17,30,2.19,2.19,0,0,1,30.35,32.17Z" fill="none" stroke="#de4c22" stroke-miterlimit="10"/><path d="M7,40.52l.17.14L10.06,43l.06-.48L6.25,39.15A.83.83,0,1,1,7.5,38.06L10.75,41,11,40.7l-3.91-4a.85.85,0,0,1,1.28-1.12l3.6,3.83a.61.61,0,0,0,.68.14l-2.8-4.2A.8.8,0,0,1,11,34.29l2.83,4A4.89,4.89,0,0,0,16,39.93l1.35-2.68,0,0a.93.93,0,0,1,1.58,1l0-.06-.22.45a9.73,9.73,0,0,0-.93,4.45A3.85,3.85,0,0,1,11,45.72L6,41.65a.75.75,0,0,1,1.13-1" fill="#faee00"/><path d="M26.59,12.89c0,2.49-2.5,4.51-5.59,4.51s-5.58-2-5.58-4.51S17.92,8.37,21,8.37s5.59,2,5.59,4.52" fill="#3094c4"/><path d="M19,16.05c0,1.73-1.74,3.14-3.88,3.14s-3.89-1.41-3.89-3.14,1.74-3.14,3.89-3.14S19,14.31,19,16.05" fill="#3094c4"/></g></svg>