<svg id="レイヤー_1" data-name="レイヤー 1" xmlns="http://www.w3.org/2000/svg" xmlns:xlink="http://www.w3.org/1999/xlink" viewBox="0 0 56.34 56.41"><defs><clipPath id="clip-path"><path d="M-.09-43.62A28.26,28.26,0,0,0,28.17-15.36,28.26,28.26,0,0,0,56.43-43.62,28.26,28.26,0,0,0,28.17-71.88,28.27,28.27,0,0,0-.09-43.62" fill="none"/></clipPath><clipPath id="clip-path-2"><path d="M0,28.16A28.26,28.26,0,1,0,28.26-.1,28.25,28.25,0,0,0,0,28.16" fill="none"/></clipPath></defs><g clip-path="url(#clip-path)"><path d="M38.33,2.84a39.52,39.52,0,0,0,2.92-15.43c0-13.5-5.83-24.44-13-24.44s-13,10.94-13,24.44a39.27,39.27,0,0,0,3,15.51Z" fill="#faee00"/><path d="M28.27-26.86a13.35,13.35,0,0,1-9-3.45c-2.51,4.45-4.07,10.74-4.07,17.72a39.27,39.27,0,0,0,3,15.51l20.18-.08a39.34,39.34,0,0,0,2.93-15.43c0-7-1.57-13.27-4.07-17.72a13.37,13.37,0,0,1-9,3.45" fill="#3094c4"/></g><g clip-path="url(#clip-path-2)"><path d="M16.63,18.28A13.39,13.39,0,1,0,30,4.89,13.38,13.38,0,0,0,16.63,18.28" fill="#faee00"/><path d="M19.51,74.17a40.87,40.87,0,0,1-3-16c0-14,6.06-25.4,13.55-25.4s13.54,11.37,13.54,25.4a40.7,40.7,0,0,1-3.08,16.12Z" fill="#faee00"/><path d="M30,43.3a13.93,13.93,0,0,0,9.32-3.58c2.6,4.63,4.22,11.17,4.22,18.42a40.88,40.88,0,0,1-3.07,16.12l-21-.09a40.87,40.87,0,0,1-3-16c0-7.25,1.62-13.79,4.22-18.42A13.93,13.93,0,0,0,30,43.3" fill="#de4c22"/><path d="M30,18.25a3.44,3.44,0,1,0,3.44-3.44A3.44,3.44,0,0,0,30,18.25" fill="#fff"/><path d="M23.08,18.25a3.44,3.44,0,1,0,3.44-3.44,3.44,3.44,0,0,0-3.44,3.44" fill="#fff"/><path d="M30.46,19a1.9,1.9,0,1,0,1.9-1.9,1.9,1.9,0,0,0-1.9,1.9" fill="#3094c4"/><path d="M23.39,19a1.9,1.9,0,1,0,1.9-1.89A1.9,1.9,0,0,0,23.39,19" fill="#3094c4"/><path d="M36.28,14.25a.56.56,0,0,0,.56.56.57.57,0,0,0,.57-.56.58.58,0,0,0-.57-.57.57.57,0,0,0-.56.57" fill="#3094c4"/><path d="M33.82,13.12a.57.57,0,0,0,1.13,0,.57.57,0,1,0-1.13,0" fill="#3094c4"/><path d="M31.24,13.38a.56.56,0,0,0,.56.57.57.57,0,1,0,0-1.13.56.56,0,0,0-.56.56" fill="#3094c4"/><path d="M23.78,14.25a.56.56,0,0,1-.56.56.57.57,0,0,1-.57-.56.58.58,0,0,1,.57-.57.57.57,0,0,1,.56.57" fill="#3094c4"/><path d="M26.24,13.12a.57.57,0,0,1-1.13,0,.57.57,0,1,1,1.13,0" fill="#3094c4"/><path d="M28.82,13.38a.56.56,0,0,1-.56.57.57.57,0,1,1,0-1.13.56.56,0,0,1,.56.56" fill="#3094c4"/><path d="M7.93,38.34l.15.12,2.5,2,.05-.41L7.29,37.16a.72.72,0,1,1,1.08-.94l2.8,2.51.18-.24L8,35.05a.73.73,0,1,1,1.09-1l3.1,3.3a.52.52,0,0,0,.59.12l-2.41-3.61a.69.69,0,0,1,1-.92l2.44,3.42a4.22,4.22,0,0,0,1.84,1.44l1.16-2.31,0,0a.8.8,0,1,1,1.35.85l0-.06-.19.39a8.57,8.57,0,0,0-.8,3.84,3.32,3.32,0,0,1-5.81,2.23L7.11,39.31a.64.64,0,0,1,.06-.91.65.65,0,0,1,.91.06" fill="#faee00"/><path d="M14.76,52,15,52l3.18-.34-.25-.33-4.4.3a.72.72,0,0,1,.1-1.43L17.34,50l0-.3-4.82-.09a.73.73,0,0,1,.1-1.45l4.53.17a.51.51,0,0,0,.5-.33l-4.26-.88a.69.69,0,1,1,.1-1.38l4.14.72a4.28,4.28,0,0,0,2.32-.26l-.79-2.47v0a.8.8,0,0,1,1.57-.34l0-.06.14.41A8.41,8.41,0,0,0,23,47.12a3.32,3.32,0,0,1-2.57,5.67l-5.52.52A.65.65,0,1,1,15,52" fill="#faee00"/></g></svg>