<svg id="レイヤー_1" data-name="レイヤー 1" xmlns="http://www.w3.org/2000/svg" xmlns:xlink="http://www.w3.org/1999/xlink" viewBox="0 0 56.34 56.41"><defs><clipPath id="clip-path"><path d="M-.09-43.62A28.26,28.26,0,0,0,28.17-15.36,28.26,28.26,0,0,0,56.43-43.62,28.25,28.25,0,0,0,28.17-71.87,28.25,28.25,0,0,0-.09-43.62" fill="none"/></clipPath><clipPath id="clip-path-2"><path d="M0,28.16A28.26,28.26,0,1,0,28.26-.1,28.25,28.25,0,0,0,0,28.16" fill="none"/></clipPath></defs><g clip-path="url(#clip-path)"><path d="M38.22,6A39.34,39.34,0,0,0,41.15-9.48c0-13.5-5.84-24.44-13-24.44s-13,10.94-13,24.44A39.27,39.27,0,0,0,18,6Z" fill="#faee00"/><path d="M28.17-23.75a13.37,13.37,0,0,1-9-3.45c-2.5,4.45-4.06,10.74-4.06,17.72A39.27,39.27,0,0,0,18.1,6L38.28,6A39.34,39.34,0,0,0,41.2-9.48c0-7-1.56-13.27-4.06-17.72a13.37,13.37,0,0,1-9,3.45" fill="#3094c4"/></g><g clip-path="url(#clip-path-2)"><path d="M17.2,18.42A13.38,13.38,0,1,0,30.58,5,13.39,13.39,0,0,0,17.2,18.42" fill="#faee00"/><path d="M20.07,74.32a40.87,40.87,0,0,1-3-16c0-14,6.07-25.4,13.55-25.4s13.54,11.37,13.54,25.4a40.88,40.88,0,0,1-3.07,16.12Z" fill="#faee00"/><path d="M30.52,43.45a13.89,13.89,0,0,0,9.32-3.58c2.6,4.63,4.23,11.16,4.23,18.42A40.88,40.88,0,0,1,41,74.41l-21-.09a40.87,40.87,0,0,1-3-16C17,51,18.6,44.5,21.2,39.87a13.89,13.89,0,0,0,9.32,3.58" fill="#de4c22"/><path d="M30.53,18.4A3.44,3.44,0,1,0,34,15a3.44,3.44,0,0,0-3.44,3.44" fill="#fff"/><path d="M23.65,18.4A3.44,3.44,0,1,0,27.09,15a3.44,3.44,0,0,0-3.44,3.44" fill="#fff"/><path d="M31,19.16a1.89,1.89,0,1,0,1.89-1.89A1.9,1.9,0,0,0,31,19.16" fill="#3094c4"/><path d="M24,19.18a1.9,1.9,0,1,0,1.89-1.89A1.89,1.89,0,0,0,24,19.18" fill="#3094c4"/><path d="M36.84,14.39a.57.57,0,0,0,.57.57.57.57,0,0,0,0-1.13.57.57,0,0,0-.57.56" fill="#3094c4"/><path d="M34.39,13.27A.56.56,0,1,0,35,12.7a.56.56,0,0,0-.56.57" fill="#3094c4"/><path d="M31.8,13.53a.57.57,0,0,0,.57.56.56.56,0,0,0,.56-.56.57.57,0,0,0-.56-.57.58.58,0,0,0-.57.57" fill="#3094c4"/><path d="M24.35,14.39a.57.57,0,0,1-.57.57.57.57,0,0,1,0-1.13.57.57,0,0,1,.57.56" fill="#3094c4"/><path d="M26.8,13.27a.56.56,0,1,1-.56-.57.56.56,0,0,1,.56.57" fill="#3094c4"/><path d="M29.39,13.53a.57.57,0,0,1-.57.56.56.56,0,0,1-.56-.56.57.57,0,0,1,.56-.57.58.58,0,0,1,.57.57" fill="#3094c4"/><path d="M8.49,38.48l.15.13,2.5,2,0-.41L7.86,37.31a.72.72,0,0,1,1.07-1l2.81,2.51.18-.23L8.55,35.19a.72.72,0,0,1,.07-1,.74.74,0,0,1,1,.07l3.1,3.3a.52.52,0,0,0,.59.12L10.92,34a.69.69,0,0,1,1-.92l2.45,3.42A4,4,0,0,0,16.24,38l1.17-2.3,0,0a.8.8,0,0,1,1.36.85l0-.05-.19.39a8.44,8.44,0,0,0-.81,3.83A3.31,3.31,0,0,1,12,43l-4.3-3.5a.65.65,0,0,1,.06-.91.64.64,0,0,1,.91.06" fill="#faee00"/><path d="M15.33,52.18h.18l3.18-.35-.25-.32-4.39.29a.71.71,0,1,1,.1-1.42l3.76-.19,0-.29-4.81-.09a.73.73,0,1,1,.1-1.45l4.52.17a.56.56,0,0,0,.51-.33l-4.26-.88a.71.71,0,0,1-.65-.74.69.69,0,0,1,.74-.64l4.14.71a4.09,4.09,0,0,0,2.32-.26l-.79-2.46v0a.8.8,0,1,1,1.57-.35v-.06l.13.42a8.48,8.48,0,0,0,2.12,3.29,3.32,3.32,0,0,1-2.57,5.67l-5.52.52a.65.65,0,0,1-.59-.69.63.63,0,0,1,.68-.6" fill="#faee00"/><path d="M32.1,25.94a2.18,2.18,0,1,1-2.18-2.18A2.18,2.18,0,0,1,32.1,25.94Z" fill="none" stroke="#de4c22" stroke-miterlimit="10"/></g></svg>