<svg id="レイヤー_1" data-name="レイヤー 1" xmlns="http://www.w3.org/2000/svg" viewBox="0 0 203.25 151.39"><path d="M89.8,48.23A48.24,48.24,0,1,0,138,0,48.23,48.23,0,0,0,89.8,48.23" fill="#de4c22"/><path d="M27.51,48.23A48.24,48.24,0,1,0,75.74,0,48.24,48.24,0,0,0,27.51,48.23" fill="#3094c4"/><path d="M124.38,48.23a48.1,48.1,0,0,1-17.09,36.82,48.21,48.21,0,0,1,0-73.64,48.13,48.13,0,0,1,17.09,36.82" fill="#faee00"/><path d="M40.2,78.58A17.41,17.41,0,1,1,22.79,61.17,17.4,17.4,0,0,1,40.2,78.58" fill="#faee00"/><path d="M36.46,151.28a53.23,53.23,0,0,0,3.95-20.85c0-18.25-7.89-33-17.62-33s-17.62,14.79-17.62,33a53.09,53.09,0,0,0,4,21Z" fill="#faee00"/><path d="M22.87,111.13a18.09,18.09,0,0,1-12.13-4.66c-3.38,6-5.49,14.52-5.49,24a53.06,53.06,0,0,0,4,21l27.28-.11a53,53,0,0,0,4-20.85c0-9.44-2.11-17.94-5.5-24a18.08,18.08,0,0,1-12.12,4.66" fill="#3094c4"/><path d="M22.86,78.55a4.48,4.48,0,1,1-4.47-4.48,4.47,4.47,0,0,1,4.47,4.48" fill="#fff"/><path d="M31.81,78.55a4.48,4.48,0,1,1-4.47-4.48,4.47,4.47,0,0,1,4.47,4.48" fill="#fff"/><path d="M22.21,79.54a2.47,2.47,0,1,1-2.46-2.46,2.46,2.46,0,0,1,2.46,2.46" fill="#3094c4"/><path d="M31.4,79.56a2.46,2.46,0,1,1-2.46-2.46,2.46,2.46,0,0,1,2.46,2.46" fill="#3094c4"/><path d="M14.65,73.34a.74.74,0,1,1-.74-.74.74.74,0,0,1,.74.74" fill="#3094c4"/><path d="M17.84,71.87a.74.74,0,1,1-.73-.73.73.73,0,0,1,.73.73" fill="#3094c4"/><path d="M21.2,72.21a.74.74,0,1,1-.73-.73.74.74,0,0,1,.73.73" fill="#3094c4"/><path d="M30.9,73.34a.74.74,0,1,0,.73-.74.73.73,0,0,0-.73.74" fill="#3094c4"/><path d="M27.7,71.87a.74.74,0,0,0,1.47,0,.74.74,0,0,0-1.47,0" fill="#3094c4"/><path d="M24.34,72.21a.74.74,0,1,0,.74-.73.74.74,0,0,0-.74.73" fill="#3094c4"/><circle cx="22.87" cy="89.63" r="2.95" transform="translate(-8.72 2.69) rotate(-5.65)" fill="none" stroke="#de4c22" stroke-miterlimit="10"/><path d="M20.72,63.56c0,3.37-3.37,6.11-7.54,6.11s-7.55-2.74-7.55-6.11S9,57.45,13.18,57.45s7.54,2.74,7.54,6.11" fill="#3094c4"/><path d="M10.5,67.83c0,2.35-2.35,4.25-5.25,4.25S0,70.18,0,67.83s2.35-4.24,5.25-4.24,5.25,1.9,5.25,4.24" fill="#3094c4"/><path d="M51.61,104.42l-.19.16-3.27,2.59-.06-.53,4.35-3.75a.94.94,0,0,0-1.4-1.24l-3.66,3.28-.24-.31,4.39-4.49a1,1,0,0,0-.08-1.34,1,1,0,0,0-1.35.08l-4,4.3a.67.67,0,0,1-.77.16l3.15-4.72a.89.89,0,0,0-.08-1.27.9.9,0,0,0-1.28.08l-3.18,4.46a5.46,5.46,0,0,1-2.39,1.88l-1.53-3,0,.06a1,1,0,0,0-1.77,1.11l0-.07.25.51a11,11,0,0,1,1,5,4.33,4.33,0,0,0,7.58,2.9l5.6-4.57a.84.84,0,1,0-1.26-1.11" fill="#faee00"/><path d="M42.7,122.29l-.25,0-4.15-.45.33-.43,5.74.39a.93.93,0,1,0-.14-1.86l-4.9-.24.05-.39,6.28-.11a1,1,0,1,0-.14-1.9l-5.89.22a.69.69,0,0,1-.66-.42l5.55-1.15a.9.9,0,1,0-.13-1.8l-5.39.93a5.42,5.42,0,0,1-3-.34l1-3.21v.07a1,1,0,0,0-.8-1.25,1,1,0,0,0-1.24.79v-.07l-.17.53a11.06,11.06,0,0,1-2.77,4.3,4.33,4.33,0,0,0,3.35,7.39l7.2.68a.85.85,0,0,0,.78-.9.83.83,0,0,0-.9-.78" fill="#faee00"/><path d="M176.33,85.17a13.38,13.38,0,1,0,13.38-13.38,13.38,13.38,0,0,0-13.38,13.38" fill="#faee00"/><path d="M179.2,141.07a40.9,40.9,0,0,1-3-16c0-14,6.07-25.41,13.55-25.41S203.25,111,203.25,125a40.83,40.83,0,0,1-3.07,16.11Z" fill="#faee00"/><path d="M189.65,110.2a13.89,13.89,0,0,0,9.32-3.58c2.6,4.62,4.23,11.16,4.23,18.42a40.83,40.83,0,0,1-3.08,16.11l-21-.08a40.91,40.91,0,0,1-3-16c0-7.26,1.62-13.8,4.22-18.42a13.89,13.89,0,0,0,9.32,3.58" fill="#de4c22"/><path d="M189.66,85.15a3.44,3.44,0,1,0,3.44-3.44,3.44,3.44,0,0,0-3.44,3.44" fill="#fff"/><path d="M182.78,85.15a3.44,3.44,0,1,0,3.44-3.44,3.44,3.44,0,0,0-3.44,3.44" fill="#fff"/><path d="M190.16,85.91A1.89,1.89,0,1,0,192.05,84a1.9,1.9,0,0,0-1.89,1.89" fill="#3094c4"/><path d="M183.09,85.93A1.9,1.9,0,1,0,185,84a1.89,1.89,0,0,0-1.89,1.9" fill="#3094c4"/><path d="M196,81.14a.58.58,0,0,0,.57.57.57.57,0,0,0,.56-.57.56.56,0,0,0-.56-.56.57.57,0,0,0-.57.56" fill="#3094c4"/><path d="M193.52,80a.56.56,0,1,0,.56-.56.56.56,0,0,0-.56.56" fill="#3094c4"/><path d="M190.93,80.28a.57.57,0,0,0,.57.56.57.57,0,0,0,0-1.13.57.57,0,0,0-.57.57" fill="#3094c4"/><path d="M183.48,81.14a.58.58,0,0,1-.57.57.57.57,0,0,1-.56-.57.56.56,0,0,1,.56-.56.57.57,0,0,1,.57.56" fill="#3094c4"/><path d="M185.93,80a.56.56,0,1,1-.56-.56.56.56,0,0,1,.56.56" fill="#3094c4"/><path d="M188.52,80.28a.57.57,0,0,1-.57.56.57.57,0,0,1,0-1.13.57.57,0,0,1,.57.57" fill="#3094c4"/><path d="M167.62,105.23l.15.12,2.5,2,0-.41L167,104.06a.72.72,0,0,1,.06-1,.71.71,0,0,1,1,.06l2.81,2.51.18-.23-3.37-3.45a.73.73,0,0,1,1.1-1l3.1,3.29a.54.54,0,0,0,.59.13l-2.42-3.62a.69.69,0,1,1,1-.92l2.45,3.42a4,4,0,0,0,1.83,1.44l1.17-2.3,0,0a.8.8,0,0,1,1.36.85l0,0-.19.39a8.44,8.44,0,0,0-.81,3.83,3.31,3.31,0,0,1-5.8,2.23l-4.3-3.5a.65.65,0,0,1,1-.86" fill="#faee00"/><path d="M174.46,118.93h.19l3.17-.35-.25-.32-4.39.29a.72.72,0,1,1,.1-1.43l3.76-.18,0-.29-4.81-.09a.73.73,0,0,1-.68-.78.74.74,0,0,1,.78-.68l4.52.17a.54.54,0,0,0,.51-.32l-4.26-.88a.7.7,0,1,1,.1-1.39l4.14.72a4.06,4.06,0,0,0,2.31-.26l-.79-2.46,0,0a.8.8,0,0,1,.6-1,.81.81,0,0,1,1,.61v-.06l.13.41a8.51,8.51,0,0,0,2.12,3.3,3.31,3.31,0,0,1-2.57,5.66l-5.52.52a.64.64,0,1,1,.1-1.28" fill="#faee00"/><polygon points="81.82 101.55 60.3 94.49 60.3 72.43 81.82 79.48 81.82 101.55" fill="#3094c4"/><polygon points="81.82 101.55 60.3 94.49 60.3 72.43 81.82 79.48 81.82 101.55" fill="none" stroke="#fff" stroke-miterlimit="10"/><path d="M61.2,103.56A8.09,8.09,0,0,1,76,110.1" fill="#3094c4"/><polygon points="134.4 99.91 155.92 92.86 155.92 70.8 134.4 77.85 134.4 99.91" fill="#3094c4"/><polygon points="134.4 99.91 155.92 92.86 155.92 70.8 134.4 77.85 134.4 99.91" fill="none" stroke="#fff" stroke-miterlimit="10"/><path d="M155,101.93a8.09,8.09,0,1,0-14.79,6.54" fill="#3094c4"/><path d="M155,101.93a8.09,8.09,0,1,0-14.79,6.54" fill="none" stroke="#fff" stroke-miterlimit="10"/><path d="M101.2,110.91a1.17,1.17,0,0,1-2.34,0,1.17,1.17,0,0,1,2.34,0" fill="#3094c4"/><path d="M106.53,111.46a1.17,1.17,0,1,1-1.16-1.17,1.16,1.16,0,0,1,1.16,1.17" fill="#3094c4"/><path d="M116.87,110.91a1.17,1.17,0,1,0,1.17-1.17,1.17,1.17,0,0,0-1.17,1.17" fill="#3094c4"/><path d="M111.53,111.46a1.17,1.17,0,1,0,1.17-1.17,1.16,1.16,0,0,0-1.17,1.17" fill="#3094c4"/><path d="M191.89,92a2.18,2.18,0,1,1-2.18-2.18A2.18,2.18,0,0,1,191.89,92Z" fill="none" stroke="#de4c22" stroke-miterlimit="10"/></svg>