<svg id="レイヤー_1" data-name="レイヤー 1" xmlns="http://www.w3.org/2000/svg" viewBox="0 0 74.39 74.26"><path d="M74.39,37.19A37.2,37.2,0,1,1,37.19,0a37.2,37.2,0,0,1,37.2,37.19" fill="#3094c4"/><path d="M40,45.53a8.33,8.33,0,1,1-8.33-8.32A8.33,8.33,0,0,1,40,45.53" fill="#fff"/><path d="M56.6,45.53a8.32,8.32,0,1,1-8.32-8.32,8.32,8.32,0,0,1,8.32,8.32" fill="#fff"/><path d="M38.74,47.38a4.58,4.58,0,1,1-4.58-4.58,4.58,4.58,0,0,1,4.58,4.58" fill="#3094c4"/><path d="M55.84,47.42a4.58,4.58,0,1,1-4.58-4.58,4.58,4.58,0,0,1,4.58,4.58" fill="#3094c4"/><path d="M24.67,35.84a1.37,1.37,0,1,1-1.36-1.36,1.36,1.36,0,0,1,1.36,1.36" fill="#fff"/><path d="M30.62,33.11a1.37,1.37,0,1,1-1.37-1.36,1.37,1.37,0,0,1,1.37,1.36" fill="#fff"/><path d="M36.87,33.75a1.37,1.37,0,1,1-1.37-1.36,1.37,1.37,0,0,1,1.37,1.36" fill="#fff"/><path d="M54.91,35.84a1.37,1.37,0,1,0,1.36-1.36,1.36,1.36,0,0,0-1.36,1.36" fill="#fff"/><path d="M49,33.11a1.37,1.37,0,1,0,1.36-1.36A1.36,1.36,0,0,0,49,33.11" fill="#fff"/><path d="M42.71,33.75a1.37,1.37,0,1,0,1.37-1.36,1.37,1.37,0,0,0-1.37,1.36" fill="#fff"/></svg>