<svg id="レイヤー_1" data-name="レイヤー 1" xmlns="http://www.w3.org/2000/svg" viewBox="0 0 144.05 88.72"><path d="M55.17,87a151.25,151.25,0,0,1-51.8-3L6.92,68.48C51.77,78.69,94,66.81,114.6,38.21,122.27,27.54,126.83,14.68,128.14,0l15.91,1.42C142.48,19,136.94,34.5,127.57,47.54c-15.82,22-42,35.76-72.4,39.48" fill="#de4c22"/><path d="M56.18,70.12a6,6,0,1,1-6-6,6,6,0,0,1,6,6" fill="#fff"/><path d="M68.24,70.12a6,6,0,1,1-6-6,6,6,0,0,1,6,6" fill="#fff"/><path d="M50.75,70.12a3.32,3.32,0,1,1-3.32-3.32,3.32,3.32,0,0,1,3.32,3.32" fill="#3094c4"/><path d="M63.48,70.12a3.33,3.33,0,1,1-3.33-3.32,3.33,3.33,0,0,1,3.33,3.32" fill="#3094c4"/><path d="M45.1,63.09a1,1,0,1,1-1-1,1,1,0,0,1,1,1" fill="#3094c4"/><path d="M49.41,61.12a1,1,0,1,1-1-1,1,1,0,0,1,1,1" fill="#3094c4"/><path d="M53.94,61.58a1,1,0,1,1-1-1,1,1,0,0,1,1,1" fill="#3094c4"/><path d="M67,63.09a1,1,0,1,0,1-1,1,1,0,0,0-1,1" fill="#3094c4"/><path d="M62.7,61.12a1,1,0,1,0,1-1,1,1,0,0,0-1,1" fill="#3094c4"/><path d="M58.18,61.58a1,1,0,1,0,1-1,1,1,0,0,0-1,1" fill="#3094c4"/><path d="M17.2,75.49A8.37,8.37,0,1,1,7.88,68.2a8.36,8.36,0,0,1,9.32,7.29" fill="#3094c4"/></svg>