<svg id="レイヤー_1" data-name="レイヤー 1" xmlns="http://www.w3.org/2000/svg" viewBox="0 0 144.05 96.75"><path d="M55.17,95.05a151.25,151.25,0,0,1-51.8-3L6.92,76.51C51.77,86.72,94,74.84,114.6,46.24,122.27,35.57,126.83,22.71,128.14,8l15.91,1.42c-1.57,17.57-7.11,33.09-16.48,46.12-15.82,22-42,35.76-72.4,39.48" fill="#de4c22"/><path d="M56.18,78.15a6,6,0,1,1-6-6,6,6,0,0,1,6,6" fill="#fff"/><path d="M68.24,78.15a6,6,0,1,1-6-6,6,6,0,0,1,6,6" fill="#fff"/><path d="M50.75,78.15a3.32,3.32,0,1,1-3.32-3.32,3.32,3.32,0,0,1,3.32,3.32" fill="#3094c4"/><path d="M63.48,78.15a3.33,3.33,0,1,1-3.33-3.32,3.33,3.33,0,0,1,3.33,3.32" fill="#3094c4"/><path d="M45.1,71.13a1,1,0,1,1-2,0,1,1,0,0,1,2,0" fill="#3094c4"/><path d="M49.41,69.15a1,1,0,1,1-1-1,1,1,0,0,1,1,1" fill="#3094c4"/><path d="M53.94,69.61a1,1,0,1,1-1-1,1,1,0,0,1,1,1" fill="#3094c4"/><path d="M67,71.13a1,1,0,1,0,2,0,1,1,0,0,0-2,0" fill="#3094c4"/><path d="M62.7,69.15a1,1,0,0,0,2,0,1,1,0,0,0-2,0" fill="#3094c4"/><path d="M58.18,69.61a1,1,0,1,0,1-1,1,1,0,0,0-1,1" fill="#3094c4"/><path d="M18.31,83.84a9.19,9.19,0,1,1-10.23-8,9.17,9.17,0,0,1,10.23,8" fill="#3094c4"/><path d="M144,7.5a8,8,0,1,1-9-7,8,8,0,0,1,9,7" fill="#3094c4"/></svg>