<?xml version="1.0" encoding="UTF-8" standalone="no"?>
<!DOCTYPE svg PUBLIC "-//W3C//DTD SVG 1.1//EN" "http://www.w3.org/Graphics/SVG/1.1/DTD/svg11.dtd">
<svg width="100%" height="100%" viewBox="0 0 72 124" version="1.1" xmlns="http://www.w3.org/2000/svg" xmlns:xlink="http://www.w3.org/1999/xlink" xml:space="preserve" xmlns:serif="http://www.serif.com/" style="fill-rule:evenodd;clip-rule:evenodd;stroke-linejoin:round;stroke-miterlimit:2;">
    <g>
        <g transform="matrix(1,0,0,1,0,1.27176)">
            <rect x="-0.244" y="12.085" width="63.85" height="57.944" style="fill:white;"/>
        </g>
        <g>
            <path d="M0,9.1L0,29.5C4.6,26.6 10,25 15.8,25C32.6,25 46.1,38.6 46.1,55.3C46.1,61.2 44.4,66.6 41.5,71.2L71.5,71.2L71.5,9.1L0,9.1Z" style="fill:rgb(0,155,221);fill-rule:nonzero;"/>
            <path d="M0,0L0,29.5C4.6,26.6 10,25 15.8,25C32.6,25 46.1,38.6 46.1,55.3C46.1,61.1 44.4,66.6 41.6,71.2L62.2,71.2L62.2,0L0,0Z" style="fill:rgb(232,74,30);fill-rule:nonzero;"/>
            <path d="M0,9.1L0,29.6C4.6,26.8 10,25.1 15.8,25.1C32.5,25.1 46.1,38.6 46.1,55.4C46.1,61.2 44.4,66.7 41.5,71.3L62.2,71.3L62.2,9.1L0,9.1Z" style="fill:rgb(0,32,69);fill-rule:nonzero;"/>
        </g>
        <rect x="18" y="83.5" width="3.8" height="14.9" style="fill:rgb(0,32,69);"/>
        <rect x="24.3" y="79.8" width="3.8" height="18.6" style="fill:rgb(0,32,69);fill-rule:nonzero;"/>
        <path d="M17,105.1L10.5,123.7L7.6,123.7L1.1,105.1L5.1,105.1L9,116.2L12.9,105.1L17,105.1Z" style="fill:rgb(0,32,69);fill-rule:nonzero;"/>
        <path d="M28.3,111C29.8,112.5 30.5,114.2 30.5,116.3C30.5,118.4 29.8,120.1 28.3,121.6C26.8,123.1 25.1,123.8 23,123.8C20.9,123.8 19.2,123.1 17.7,121.6C16.2,120.1 15.5,118.4 15.5,116.3C15.5,114.2 16.2,112.5 17.7,111C19.2,109.5 20.9,108.8 23,108.8C25.1,108.8 26.8,109.5 28.3,111ZM23,112.5C22,112.5 21.1,112.9 20.4,113.6C19.7,114.3 19.3,115.2 19.3,116.2C19.3,117.2 19.7,118.1 20.4,118.8C21.1,119.5 22,119.9 23,119.9C24,119.9 24.9,119.5 25.6,118.8C26.3,118.1 26.7,117.2 26.7,116.2C26.7,115.2 26.3,114.3 25.6,113.6C24.9,112.9 24.1,112.5 23,112.5Z" style="fill:rgb(0,32,69);fill-rule:nonzero;"/>
        <rect x="32.4" y="108.8" width="3.8" height="14.9" style="fill:rgb(0,32,69);fill-rule:nonzero;"/>
        <path d="M60,119.3C59.4,119.7 58.7,119.9 57.9,119.9C56.9,119.9 56,119.5 55.3,118.8C55.1,118.6 54.9,118.3 54.7,118.1L65.1,118.1C65.2,117.5 65.3,116.9 65.3,116.2C65.3,114.1 64.6,112.4 63.1,110.9C62,109.8 60.8,109.2 59.3,108.9C58.8,108.8 58.3,108.8 57.8,108.8C56.8,108.8 55.8,109 54.9,109.3C54,109.7 53.2,110.2 52.5,110.9C51.7,111.7 51.2,112.6 50.8,113.5C50.5,114.3 50.3,115.2 50.3,116.1L50.3,116.2C50.3,116.9 50.4,117.5 50.6,118.1C50.9,119.3 51.5,120.4 52.5,121.3C54,122.8 55.7,123.5 57.8,123.5L58.6,123.5C58.8,123.5 58.9,123.5 59.1,123.4C59.8,123.3 60.5,123 61.2,122.7C61.3,122.6 61.5,122.5 61.5,122.5C61.9,122.3 62.2,122 62.5,121.8L60,119.3ZM55.3,113.6C55.8,113.1 56.5,112.7 57.2,112.6C57.4,112.6 57.7,112.5 57.9,112.5L58.6,112.5C58.7,112.5 58.8,112.6 58.9,112.6C59,112.6 59.2,112.7 59.3,112.7C59.4,112.7 59.4,112.8 59.5,112.8C59.9,113 60.2,113.2 60.5,113.5C60.7,113.7 60.9,114 61.1,114.3L54.6,114.3C54.9,114.1 55.1,113.8 55.3,113.6Z" style="fill:rgb(0,32,69);fill-rule:nonzero;"/>
        <path d="M39.6,94.1C39,94.5 38.3,94.7 37.5,94.7C36.5,94.7 35.6,94.3 34.9,93.6C34.7,93.4 34.5,93.1 34.3,92.9L44.7,92.9C44.8,92.3 44.9,91.7 44.9,91C44.9,88.9 44.2,87.2 42.7,85.7C41.6,84.6 40.4,84 38.9,83.7C38.4,83.6 37.9,83.6 37.4,83.6C36.4,83.6 35.4,83.8 34.5,84.1C33.6,84.5 32.8,85 32.1,85.7C31.3,86.5 30.8,87.4 30.4,88.3C30.1,89.1 29.9,90 29.9,90.9L29.9,91C29.9,91.7 30,92.3 30.2,92.9C30.5,94.1 31.1,95.2 32.1,96.1C33.6,97.6 35.3,98.3 37.4,98.3L38.2,98.3C38.4,98.3 38.5,98.3 38.7,98.2C39.4,98.1 40.1,97.8 40.8,97.5C40.9,97.4 41.1,97.3 41.1,97.3C41.5,97.1 41.8,96.8 42.1,96.6L39.6,94.1ZM34.9,88.4C35.4,87.9 36.1,87.5 36.8,87.4C37,87.4 37.3,87.3 37.5,87.3L38.2,87.3C38.3,87.3 38.4,87.4 38.5,87.4C38.6,87.4 38.8,87.5 38.9,87.5C39,87.5 39,87.6 39.1,87.6C39.5,87.8 39.8,88 40.1,88.3C40.3,88.5 40.5,88.8 40.7,89.1L34.2,89.1C34.5,88.9 34.7,88.6 34.9,88.4Z" style="fill:rgb(0,32,69);fill-rule:nonzero;"/>
        <path d="M47.7,119.4C47.1,119.8 46.5,120 45.7,120C44.7,120 43.8,119.6 43.1,118.9C42.4,118.2 42,117.3 42,116.3C42,115.3 42.4,114.4 43.1,113.7C43.8,113 44.7,112.6 45.7,112.6C46.4,112.6 47.1,112.8 47.6,113.1L50.3,110.4C49,109.3 47.5,108.8 45.7,108.8C43.6,108.8 41.9,109.5 40.4,111C38.9,112.5 38.2,114.2 38.2,116.3C38.2,118.4 38.9,120.1 40.4,121.6C41.9,123.1 43.6,123.8 45.7,123.8C47.5,123.8 49,123.2 50.3,122.2L47.7,119.4Z" style="fill:rgb(0,32,69);fill-rule:nonzero;"/>
        <g>
            <path d="M68.9,87.3L68.9,98.5L65.1,98.5L65.1,79.7L68.9,79.7L68.9,83.5L71.6,83.5L71.6,87.3L68.9,87.3Z" style="fill:rgb(0,32,69);fill-rule:nonzero;"/>
            <rect x="62.7" y="83.6" width="4.8" height="3.7" style="fill:rgb(0,32,69);"/>
        </g>
        <path d="M13.9,89.1C12.6,88.3 9.8,87.7 9.8,87.7C9.5,87.6 9.1,87.6 8.8,87.5L8.5,87.4C8.1,87.3 7.7,87.2 7.3,87.1C5.9,86.8 5.3,86.2 5.3,85.4C5.3,84.7 6.5,83.4 8.4,83.4C10.5,83.4 11.8,85.3 11.8,85.9L15.8,85.9C15.8,84.3 14.7,82.1 13.2,81.1C11.9,80.2 10.5,79.7 8.4,79.7C6.6,79.7 4.9,80.3 3.6,81.1C2,82.2 1.3,83.9 1.3,85.7C1.3,89.9 5.7,90.3 6.2,90.4C6.6,90.5 7.8,90.7 7.8,90.7C8.1,90.8 8.4,90.8 8.8,90.9C9.1,91 9.4,91 9.8,91.1C11.2,91.4 11.8,91.9 11.8,92.8C11.8,93.6 10.6,94.8 8.7,94.8C6.6,94.8 5.3,93 5.3,92.3L1.3,92.3C1.3,93.9 2.4,96.1 3.9,97.1C5.2,98 6.7,98.5 8.7,98.5C10.6,98.5 12.1,98 13.4,97.1C15,96 15.8,94.2 15.8,92.4C15.7,90.9 15,89.9 13.9,89.1Z" style="fill:rgb(0,32,69);fill-rule:nonzero;"/>
        <path d="M59.8,85.7C58.3,84.2 56.6,83.6 54.3,83.6C53.1,83.6 52,84 51,84.5L51,83.6L47.1,83.6L47.1,98.5L51,98.5L51,90.7L51,90.4C51.2,89.1 52.1,88 53.3,87.5C53.5,87.4 53.6,87.4 53.8,87.3C54.1,87.2 54.3,87.2 54.6,87.2C56.6,87.2 58.2,88.8 58.2,90.8L58.2,98.4L62,98.4L62,91C62,89 61.3,87.2 59.8,85.7Z" style="fill:rgb(0,32,69);fill-rule:nonzero;"/>
        <rect x="18" y="79.8" width="3.8" height="2" style="fill:rgb(0,32,69);"/>
        <rect x="32.5" y="105.1" width="3.8" height="2" style="fill:rgb(0,32,69);"/>
    </g>
</svg>
