<?xml version="1.0" encoding="utf-8"?>
<!-- Generator: Adobe Illustrator 23.0.3, SVG Export Plug-In . SVG Version: 6.00 Build 0)  -->
<svg version="1.1" id="Capa_1" xmlns="http://www.w3.org/2000/svg" xmlns:xlink="http://www.w3.org/1999/xlink" x="0px" y="0px"
	 viewBox="0 0 41.5 84.5" style="enable-background:new 0 0 41.5 84.5;" xml:space="preserve">
<style type="text/css">
	.st0{fill:#A09A32;}
</style>
<g>
	<path class="st0" d="M0.4,84.1C12.1,80,22.6,72.6,28.7,55.6c5.2-14.5,2.5-30.7-8-48.2l-0.8,0.4c10.4,17.3,13,33.2,7.9,47.5
		C21.8,72,11.6,79.2,0,83.3L0.4,84.1z"/>
	<path class="st0" d="M26.9,59.9l-0.4,0c-0.1,0-0.2,0-0.3-0.1c-0.1,0-0.1-0.1-0.2-0.1l-0.2-0.3c-1.7-1.8-3.6-3.9-3.8-8.7
		c-0.1-4.9,2.6-9.7,2.7-9.9c0.1-0.2,0.3-0.3,0.5-0.3c0.2,0,0.4,0.1,0.5,0.3c0.3,0.6,0.5,1.1,0.7,1.6c1.8,3.9,2.9,6.2,1.5,13
		c4-6.5,6.7-8.6,11-10.3c0.5-0.2,1.1-0.4,1.7-0.7c0.2-0.1,0.4,0,0.6,0.1c0.2,0.1,0.2,0.4,0.2,0.6c-0.1,0.2-1.7,7.1-5.4,10.8
		C32.5,59.7,29.5,59.8,26.9,59.9z"/>
	<path class="st0" d="M31.3,39.8L31,39.9c0,0,0,0,0,0c-0.1,0-0.2,0.1-0.3,0.1c0,0,0,0-0.1,0l-0.3-0.1c-2-0.7-4.2-1.5-6.2-5
		c-2-3.6-1.8-8.3-1.8-8.5c0-0.2,0.1-0.4,0.3-0.4c0.2-0.1,0.4-0.1,0.5,0.1c0.4,0.3,0.8,0.6,1.2,0.9c2.9,2.2,4.5,3.5,6.1,9.1
		c0.4-6.5,1.9-8.2,4.5-11.1c0.3-0.4,0.7-0.8,1-1.2c0.1-0.1,0.3-0.2,0.5-0.2c0.2,0,0.3,0.2,0.4,0.4c0.1,0.2,1.5,5.1,0.2,9.4
		C35.6,37.3,33.2,38.6,31.3,39.8z"/>
	<path class="st0" d="M12.4,72.2c0.1-0.1,0.3,0,0.4,0c0.1,0.1,0.1,0.2,0.1,0.3c-0.1,0.3-0.1,0.7-0.2,1c-0.4,2.2-0.6,3.6-2.9,5.8
		c3.3-1.6,4.9-1.4,7.4-1c0.3,0.1,0.7,0.1,1.1,0.2c0.1,0,0.2,0.1,0.3,0.2c0,0.1,0,0.3-0.1,0.4c-0.1,0.1-2.4,2.5-5.4,3.3
		c-1.7,0.4-3,0.3-4.1,0c-0.7-0.2-1.3-0.5-1.9-0.8l-0.2-0.1c0,0,0,0-0.1,0c0,0-0.1,0-0.1-0.1c0,0,0,0,0-0.1c0,0,0,0,0-0.1l0-0.2
		c-0.2-1.4-0.5-3,1-5.3C9.3,73.5,12.2,72.2,12.4,72.2z"/>
	<path class="st0" d="M16.4,74.4c-0.1,0-0.1,0-0.2-0.1c-0.1-0.1-0.2-0.1-0.3-0.3l-0.1-0.3c-0.9-2-1.9-4.2-0.3-8
		c1.7-3.8,5.9-6.6,6.1-6.8C21.8,59,22,59,22.2,59c0.2,0.1,0.3,0.2,0.3,0.4c0,0.5,0.1,1,0.1,1.5c0.2,3.1,0.4,5-1.9,8.5
		c4-3,6.7-4.5,10.6-5c0.6-0.1,1.2-0.1,1.8-0.2c0.2,0,0.4,0,0.6,0.2c0.1,0.2,0.2,0.4,0.1,0.5c-0.1,0.2-2.8,5.8-7.2,8.1
		c-4.3,2.2-7.2,1.8-9.8,1.4L16.4,74.4z"/>
	<path class="st0" d="M13.5,0.5c0.1-0.1,0.3-0.1,0.4-0.1c0.2,0.1,4.6,1.8,7.1,4.7c2.5,2.8,2.3,4.8,2.1,6.4l0,0.2
		c0,0.1-0.1,0.3-0.2,0.3c-0.1,0-0.2,0-0.2,0c-0.1,0-0.1,0-0.2-0.1c-0.8-0.5-1.3-0.7-1.8-0.9c-0.5-0.2-1-0.3-1.6-0.8
		c-3.7-3-4.5-5.5-5.3-8.5c-0.1-0.3-0.2-0.7-0.3-1.1C13.3,0.7,13.3,0.6,13.5,0.5z"/>
	<path class="st0" d="M20.3,16c0.3,0.1,0.7,0.3,1,0.4c2.2,0.9,3.6,1.5,5.4,4.3c-0.9-3.6-0.3-5.1,0.6-7.4c0.1-0.3,0.3-0.7,0.4-1
		c0-0.1,0.2-0.2,0.3-0.2c0.1,0,0.3,0,0.3,0.2c0.1,0.1,2.1,3,2.2,6c0.1,3-1.1,4.4-2.1,5.6l-0.1,0.2c0,0,0,0-0.1,0c0,0-0.1,0-0.1,0.1
		c0,0-0.1,0-0.1,0c0,0-0.1,0-0.1,0l-0.2,0c-0.7-0.1-1.3-0.1-2.1-0.3c-1-0.3-2-0.8-3.1-2c-2-2.1-2.7-5.3-2.7-5.4c0-0.1,0-0.3,0.1-0.3
		C20.1,15.9,20.2,15.9,20.3,16z"/>
</g>
</svg>
